<?xml version="1.0" standalone="no"?><!DOCTYPE svg PUBLIC "-//W3C//DTD SVG 1.1//EN" "http://www.w3.org/Graphics/SVG/1.1/DTD/svg11.dtd"><svg width="100%" height="100%" viewBox="0 0 60 72" version="1.1" xmlns="http://www.w3.org/2000/svg" xmlns:xlink="http://www.w3.org/1999/xlink" xml:space="preserve" style="fill-rule:evenodd;clip-rule:evenodd;stroke-linejoin:round;stroke-miterlimit:1.41421;"><g><path d="M41,29c0,5 -4,9 -9,9c-5,0 -9,-4 -9,-9c0,-5 4,-9 9,-9c5,0 9,4 9,9" style="fill:#fff;fill-rule:nonzero;"/><rect x="28" y="52" width="8" height="2" style="fill:#fff;"/><path d="M36,56.4l0,-0.4l-8,0l0,2l5.5,0c0.7,-0.7 1.5,-1.3 2.5,-1.6Z" style="fill:#fff;fill-rule:nonzero;"/><path d="M28,60l0,2l4,0c0,-0.7 0.1,-1.4 0.4,-2l-4.4,0Z" style="fill:#fff;fill-rule:nonzero;"/><path d="M28,64l0,2l5.5,0c-0.5,-0.6 -0.9,-1.3 -1.2,-2l-4.3,0Z" style="fill:#fff;fill-rule:nonzero;"/><path d="M58.4,59.9l-7.9,-12.9c-2,-3.7 -5.8,-5.9 -9.9,-5.9l-16.8,0l-9.6,-4.1l-3.4,-10.3c-0.7,-2.1 -3,-3.2 -5.1,-2.5c-2.1,0.7 -3.2,3 -2.5,5.1l4,12c0.4,1.1 1.2,2 2.2,2.4l9.6,4l0,24.3l25,0l0,-4l-6,0l-12,0l0,-18l12,0l0,6l6,0l0,-4.3l3.9,6.3l-1.9,0l-2,0l-6,0c-2.2,0 -4,1.8 -4,4c0,2.2 1.8,4 4,4l17,0c1.4,0 2.8,-0.8 3.5,-2c0.7,-1.3 0.7,-2.9 -0.1,-4.1Z" style="fill:#fff;fill-rule:nonzero;"/><g><path d="M9,19l-4,0c-0.6,0 -1,-0.4 -1,-1c0,-0.6 0.4,-1 1,-1l4,0c0.6,0 1,0.4 1,1c0,0.6 -0.4,1 -1,1Z" style="fill:#fff;fill-rule:nonzero;"/><path d="M8,22l-2,0c-0.6,0 -1,-0.4 -1,-1c0,-0.6 0.4,-1 1,-1l2,0c0.6,0 1,0.4 1,1c0,0.6 -0.4,1 -1,1Z" style="fill:#fff;fill-rule:nonzero;"/><path d="M13.5,6.5c0,-3.6 -2.9,-6.5 -6.5,-6.5c-3.6,0 -6.5,2.9 -6.5,6.5c0,1.6 0.5,3 1.5,4.1c2.1,2.6 2,4.4 2,4.4c0,0.6 0.4,1 1,1l4,0c0.6,0 1,-0.4 1,-1c0,0 -0.1,-1.8 2,-4.4c1,-1.1 1.5,-2.5 1.5,-4.1Z" style="fill:#fff;fill-rule:nonzero;"/></g></g></svg>