<?xml version="1.0" standalone="no"?><!DOCTYPE svg PUBLIC "-//W3C//DTD SVG 1.1//EN" "http://www.w3.org/Graphics/SVG/1.1/DTD/svg11.dtd"><svg width="100%" height="100%" viewBox="0 0 100 96" version="1.1" xmlns="http://www.w3.org/2000/svg" xmlns:xlink="http://www.w3.org/1999/xlink" xml:space="preserve" style="fill-rule:evenodd;clip-rule:evenodd;stroke-linejoin:round;stroke-miterlimit:1.41421;"><g><path d="M57.134,40.331l0,4.197l42.866,0l0,-4.197l-42.866,0ZM65.289,88.695l26.547,0l0,-37.565l-26.547,0l0,37.565ZM59.863,95.309l37.402,0l0,-49.902l-37.402,0l0,49.902ZM64.375,50.217l28.366,0l0,39.385l-28.366,0l0,-39.385Z" style="fill:#fff;fill-rule:nonzero;"/><path d="M88.605,25.174l-2.662,0c-0.443,0 -0.809,0.359 -0.809,0.803l0,2.054c0,0.249 0.116,0.501 0.284,0.723l0,10.973l3.71,0l0,-9.313c0.159,-0.071 0.273,-0.222 0.273,-0.471l0,-3.966c0.003,-0.444 -0.351,-0.803 -0.796,-0.803ZM87.273,24.761c0.781,0 0.781,-1.269 0.408,-2.201c-0.371,-0.923 -0.408,-1.819 -0.408,-1.819c0,0 -0.035,0.896 -0.407,1.819c-0.382,0.932 -0.382,2.201 0.407,2.201Z" style="fill:#fff;fill-rule:nonzero;"/><g><path d="M47.667,18.638c4.646,-2.867 6.079,-8.954 3.204,-13.608c-2.884,-4.628 -8.967,-6.07 -13.613,-3.19c-4.65,2.88 -6.079,8.972 -3.204,13.613c2.872,4.64 8.968,6.078 13.613,3.185Z" style="fill:#fff;fill-rule:nonzero;"/><path d="M66.197,36.352l1.457,-0.143l-0.426,-6.513l-1.985,-0.01c0.28,-1.804 0.317,-4.566 -1.228,-7.25c-0.382,-0.661 -0.781,-1.242 -1.177,-1.784l-0.812,2.01l0.273,-2.702c-2.104,-2.609 -4.104,-3.79 -4.4,-5.316c0,0 0.183,2.334 0.838,4.766l1.863,1.127l-1.623,-0.319c0.227,0.714 0.487,1.419 0.813,2.05c1.167,2.262 1.049,5.126 2.682,7.404l-12.574,-0.061l-13.071,-7.916c-0.519,-0.399 -1.078,-0.754 -1.69,-1.025l-0.249,-0.15l-0.036,0.058c-0.413,-0.169 -0.834,-0.324 -1.287,-0.426c-4.513,-0.998 -8.99,1.841 -9.975,6.354l-5.768,26.047c-0.602,2.734 0.206,5.447 1.934,7.447l-2.771,0l-8.013,-36.312c-0.55,-2.444 -2.977,-4.016 -5.417,-3.475c-2.458,0.546 -3.993,2.961 -3.443,5.406l-0.014,-0.017l8.808,39.794c0.257,1.17 0.976,2.277 1.913,2.918l-4.66,27.686l4.828,0l2.01,-13l27.003,0l0,13l5,0l0,-27.59c0,-0.104 0.261,-0.227 0.445,-0.355l4.726,24.652l7.933,-1.206l-3.883,-33.331c-0.359,-2.369 -2.289,-4.188 -4.681,-4.41l-14.544,-1.404l4.297,-19.39l7.378,4.463c0.657,0.399 1.41,0.612 2.183,0.612c0.066,0 0.133,0 0.195,-0.004l16.445,-1.616l0.527,2.024c0.125,0.484 0.352,0.839 0.528,0.786c0.173,-0.054 0.218,-0.479 0.099,-0.963l-0.451,-1.916ZM40,79l-26.267,0l1.58,-10l24.687,0l0,10Z" style="fill:#fff;fill-rule:nonzero;"/></g><path d="M82.705,34.949l-0.02,0c-0.435,0 -0.744,-0.315 -0.852,-0.71c0.055,-0.049 0.15,-0.067 0.15,-0.146c0,-0.129 -0.115,-0.2 -0.23,-0.231l0,-0.084c0.115,-0.027 0.23,-0.098 0.23,-0.222c0,-0.124 -0.115,-0.191 -0.23,-0.222l0.01,-0.275l-2.893,0l0,0.262c-0.124,0.026 -0.239,0.102 -0.239,0.235c0,0.129 0.115,0.204 0.239,0.231l0,0.071c-0.124,0.027 -0.239,0.102 -0.239,0.235c0,0.084 0.098,0.106 0.159,0.155c-0.106,0.39 -0.435,0.701 -0.869,0.701l-0.019,0c-0.516,0 -0.94,0.426 -0.94,0.945l0,2.706c0,0.515 0.427,0.941 0.94,0.941l4.802,0c0.522,0 0.948,-0.426 0.948,-0.941l0,-2.707c0.002,-0.518 -0.423,-0.944 -0.947,-0.944ZM82.35,38.232l-4.091,0l0,-2.112l4.091,0l0,2.112Z" style="fill:#fff;fill-rule:nonzero;"/></g></svg>