<?xml version="1.0" standalone="no"?><!DOCTYPE svg PUBLIC "-//W3C//DTD SVG 1.1//EN" "http://www.w3.org/Graphics/SVG/1.1/DTD/svg11.dtd"><svg width="100%" height="100%" viewBox="0 0 39 89" version="1.1" xmlns="http://www.w3.org/2000/svg" xmlns:xlink="http://www.w3.org/1999/xlink" xml:space="preserve" style="fill-rule:evenodd;clip-rule:evenodd;stroke-linejoin:round;stroke-miterlimit:1.41421;"><g><rect x="0" y="86" width="39" height="3" style="fill:#fff;"/><path d="M4,84l-1,0l0,1l7,0c0,-5.523 4.253,-10 9.5,-10c5.247,0 9.5,4.477 9.5,10l7,0l0,-1l-1,0l-6,-13l-19,0l-6,13Z" style="fill:#fff;fill-rule:nonzero;"/><path d="M22.539,66.001l0.461,0.999l4.154,0.001l-0.461,-0.999l-2.448,-10.001l-9.49,-0.002l-2.447,10l-0.462,1l4.154,0.001l0.462,-1l1.038,-8l4,0l1.039,8.001Z" style="fill:#fff;fill-rule:nonzero;"/><path d="M29,70l-19,0l0,-1l-1,-1l21,0l-1,1l0,1Z" style="fill:#fff;fill-rule:nonzero;"/><path d="M24,55l-9,0l0,-1l-1,-1l11,0l-1,1l0,1Z" style="fill:#fff;fill-rule:nonzero;"/><path d="M21.5,32l1.521,19l0.245,1l-7.532,0l0.245,-1.001l1.521,-18.999l0.5,-20l3,0l0.5,20Z" style="fill:#fff;fill-rule:nonzero;"/><path d="M22,11l-1,1l-3,0l-1,-1l0,-1l5,0l0,1Z" style="fill:#fff;fill-rule:nonzero;"/><rect x="17.5" y="8" width="4" height="1" style="fill:#fff;"/><path d="M21.5,8c0,-1.105 -0.895,-2 -2,-2c-1.105,0 -2,0.895 -2,2l4,0Z" style="fill:#fff;fill-rule:nonzero;"/><rect x="19" y="0" width="1" height="5" style="fill:#fff;"/></g></svg>