<?xml version="1.0" standalone="no"?><!DOCTYPE svg PUBLIC "-//W3C//DTD SVG 1.1//EN" "http://www.w3.org/Graphics/SVG/1.1/DTD/svg11.dtd"><svg width="100%" height="100%" viewBox="0 0 84 78" version="1.1" xmlns="http://www.w3.org/2000/svg" xmlns:xlink="http://www.w3.org/1999/xlink" xml:space="preserve" style="fill-rule:evenodd;clip-rule:evenodd;stroke-linejoin:round;stroke-miterlimit:1.41421;"><g><path d="M16,53l0,23l-14,0l0,-23l14,0M16,51l-14,0c-1.104,0 -2,0.896 -2,2l0,23c0,1.104 0.896,2 2,2l14,0c1.104,0 2,-0.896 2,-2l0,-23c0,-1.104 -0.896,-2 -2,-2Z" style="fill:#fff;fill-rule:nonzero;"/><path d="M38,39l0,37l-14,0l0,-37l14,0M38,37l-14,0c-1.104,0 -2,0.896 -2,2l0,37c0,1.104 0.896,2 2,2l14,0c1.104,0 2,-0.896 2,-2l0,-37c0,-1.104 -0.896,-2 -2,-2Z" style="fill:#fff;fill-rule:nonzero;"/><path d="M60,47l0,29l-14,0l0,-29l14,0M60,45l-14,0c-1.104,0 -2,0.896 -2,2l0,29c0,1.104 0.896,2 2,2l14,0c1.104,0 2,-0.896 2,-2l0,-29c0,-1.104 -0.896,-2 -2,-2Z" style="fill:#fff;fill-rule:nonzero;"/><path d="M82,29l0,47l-14,0l0,-47l14,0M82,27l-14,0c-1.104,0 -2,0.896 -2,2l0,47c0,1.104 0.896,2 2,2l14,0c1.104,0 2,-0.896 2,-2l0,-47c0,-1.104 -0.896,-2 -2,-2Z" style="fill:#fff;fill-rule:nonzero;"/><path d="M29.5,13c-2.481,0 -4.5,-2.019 -4.5,-4.5c0,-2.481 2.019,-4.5 4.5,-4.5c2.481,0 4.5,2.019 4.5,4.5c0,2.481 -2.019,4.5 -4.5,4.5ZM29.5,6c-1.378,0 -2.5,1.122 -2.5,2.5c0,1.378 1.122,2.5 2.5,2.5c1.378,0 2.5,-1.122 2.5,-2.5c0,-1.378 -1.122,-2.5 -2.5,-2.5Z" style="fill:#fff;fill-rule:nonzero;"/><path d="M8.5,34c-2.481,0 -4.5,-2.019 -4.5,-4.5c0,-2.481 2.019,-4.5 4.5,-4.5c2.481,0 4.5,2.019 4.5,4.5c0,2.481 -2.019,4.5 -4.5,4.5ZM8.5,27c-1.378,0 -2.5,1.122 -2.5,2.5c0,1.378 1.122,2.5 2.5,2.5c1.378,0 2.5,-1.122 2.5,-2.5c0,-1.378 -1.122,-2.5 -2.5,-2.5Z" style="fill:#fff;fill-rule:nonzero;"/><path d="M74.5,9c-2.481,0 -4.5,-2.019 -4.5,-4.5c0,-2.481 2.019,-4.5 4.5,-4.5c2.481,0 4.5,2.019 4.5,4.5c0,2.481 -2.019,4.5 -4.5,4.5ZM74.5,2c-1.379,0 -2.5,1.122 -2.5,2.5c0,1.378 1.121,2.5 2.5,2.5c1.379,0 2.5,-1.122 2.5,-2.5c0,-1.378 -1.121,-2.5 -2.5,-2.5Z" style="fill:#fff;fill-rule:nonzero;"/><path d="M51.5,33c-2.481,0 -4.5,-2.019 -4.5,-4.5c0,-2.481 2.019,-4.5 4.5,-4.5c2.481,0 4.5,2.019 4.5,4.5c0,2.481 -2.019,4.5 -4.5,4.5ZM51.5,26c-1.379,0 -2.5,1.122 -2.5,2.5c0,1.378 1.121,2.5 2.5,2.5c1.379,0 2.5,-1.122 2.5,-2.5c0,-1.378 -1.121,-2.5 -2.5,-2.5Z" style="fill:#fff;fill-rule:nonzero;"/><path d="M26.433,10.153l-16.28,16.28c0.6,0.325 1.089,0.814 1.414,1.414l16.279,-16.279c-0.599,-0.325 -1.089,-0.815 -1.413,-1.415ZM31.226,11.527l16.894,16.109c0.176,-0.688 0.553,-1.289 1.067,-1.746l-16.581,-15.81c-0.31,0.609 -0.789,1.109 -1.38,1.447ZM71.461,6.205l-18.387,19.185c0.609,0.31 1.11,0.787 1.45,1.378l18.373,-19.173c-0.605,-0.315 -1.102,-0.796 -1.436,-1.39Z" style="fill:#fff;fill-rule:nonzero;"/></g></svg>