<?xml version="1.0" standalone="no"?><!DOCTYPE svg PUBLIC "-//W3C//DTD SVG 1.1//EN" "http://www.w3.org/Graphics/SVG/1.1/DTD/svg11.dtd"><svg width="100%" height="100%" viewBox="0 0 78 94" version="1.1" xmlns="http://www.w3.org/2000/svg" xmlns:xlink="http://www.w3.org/1999/xlink" xml:space="preserve" style="fill-rule:evenodd;clip-rule:evenodd;stroke-linejoin:round;stroke-miterlimit:1.41421;"><path d="M73.175,15.226c-5.97,-9.904 -14.311,-13.175 -25.301,-14.576c-15.607,-1.991 -37.321,6.347 -41.889,11.219c0,0 -1.522,4.771 2.741,7.207c-3.352,7.949 -3.451,9.541 -4.076,14.968c0.118,1.832 0.383,3.583 0.726,5.23c-0.184,6.317 -3.025,10.222 -5.176,16.139c0,1.581 3.273,2.436 4.719,2.512c0.838,1.219 1.295,1.853 0.077,3.578c-0.305,1.294 0.917,2.487 1.903,2.893c-0.903,0.502 -1.175,1.182 -1.113,2.226c0.014,0.249 0.352,1.352 0.352,1.352c1.123,1.069 2.097,2.371 2.192,3.956c0.119,1.994 -1.075,3.635 0.291,5.456c3.116,4.149 11.271,1.214 14.775,-0.021c7.67,9.205 4.389,16.635 4.389,16.635l36.225,0c0,0 -5.649,-16.617 -3.213,-31.538c5.481,-4.872 14.008,-6.722 16.908,-27.017c0.536,-6.399 -1.219,-14.728 -4.53,-20.219ZM47.464,10.119l-1.188,-0.569l0.868,-1.807l1.188,0.57c0.321,-0.405 0.704,-0.743 1.127,-1.009l-0.436,-1.244l1.892,-0.664l0.436,1.244c0.498,-0.059 1.008,-0.033 1.512,0.082l0.57,-1.187l1.806,0.868l-0.567,1.187c0.402,0.321 0.741,0.704 1.009,1.127l1.241,-0.436l0.664,1.892l-1.242,0.436c0.058,0.498 0.032,1.008 -0.082,1.511l1.187,0.57l-0.869,1.807l-1.186,-0.57c-0.322,0.405 -0.704,0.744 -1.128,1.01l0.437,1.242l-1.893,0.665l-0.438,-1.243c-0.495,0.058 -1.007,0.032 -1.51,-0.083l-0.568,1.186l-1.809,-0.867l0.569,-1.188c-0.404,-0.32 -0.742,-0.704 -1.009,-1.127l-1.242,0.436l-0.665,-1.893l1.243,-0.435c-0.059,-0.497 -0.032,-1.006 0.083,-1.511ZM24.65,17.517c-0.285,0.2 -0.599,0.345 -0.923,0.436l0.043,0.888l-1.352,0.066l-0.043,-0.887c-0.333,-0.059 -0.659,-0.173 -0.963,-0.344l-0.596,0.659l-1.004,-0.909l0.596,-0.658c-0.2,-0.286 -0.345,-0.598 -0.436,-0.923l-0.888,0.043l-0.066,-1.352l0.888,-0.044c0.057,-0.333 0.171,-0.658 0.343,-0.962l-0.659,-0.596l0.908,-1.004l0.659,0.597c0.285,-0.199 0.598,-0.346 0.923,-0.437l-0.044,-0.887l1.352,-0.067l0.044,0.887c0.332,0.059 0.657,0.173 0.962,0.345l0.597,-0.658l1.002,0.907l-0.597,0.66c0.202,0.286 0.347,0.598 0.438,0.923l0.887,-0.044l0.066,1.351l-0.887,0.044c-0.057,0.333 -0.172,0.659 -0.344,0.963l0.658,0.595l-0.908,1.003l-0.656,-0.595ZM32.085,22.071c-0.33,0.231 -0.69,0.399 -1.065,0.504l0.05,1.023l-1.559,0.077l-0.049,-1.024c-0.384,-0.067 -0.759,-0.2 -1.11,-0.396l-0.688,0.76l-1.157,-1.05l0.688,-0.76c-0.232,-0.328 -0.399,-0.689 -0.503,-1.064l-1.023,0.05l-0.077,-1.559l1.024,-0.049c0.067,-0.386 0.199,-0.761 0.396,-1.11l-0.759,-0.688l1.047,-1.157l0.761,0.688c0.328,-0.231 0.688,-0.398 1.064,-0.504l-0.05,-1.023l1.559,-0.078l0.049,1.025c0.384,0.066 0.759,0.198 1.11,0.396l0.69,-0.758l1.156,1.047l-0.688,0.76c0.231,0.329 0.398,0.69 0.504,1.064l1.023,-0.051l0.077,1.56l-1.024,0.05c-0.065,0.385 -0.197,0.76 -0.396,1.109l0.759,0.688l-1.048,1.158l-0.761,-0.688ZM50.24,35.085c-0.91,0.573 -1.24,0.998 -3.24,1.244l0,2.671l-4,0l0,-2.671c-1,-0.245 -2.002,-0.671 -2.91,-1.244l-1.952,1.997l-3.02,-3.041l2.01,-2.02c-0.573,-0.908 -0.987,-2.021 -1.233,-3.021l-2.895,0l0,-4l2.895,0c0.246,-1 0.671,-2.217 1.244,-3.126l-1.998,-2.061l3.042,-3.073l1.907,1.981c0.908,-0.573 1.91,-1.014 2.91,-1.259l0,-2.462l4,0l0,2.463c2,0.244 2.33,0.669 3.24,1.242l2.116,-1.997l3.099,3.041l-1.964,2.125c0.572,0.909 1.026,2.126 1.271,3.126l3.238,0l0,4l-3.238,0c-0.245,1 -0.67,2.113 -1.242,3.021l1.995,2.009l-3.158,3.045l-2.117,-1.99ZM70.927,36.975l1.842,0.885l-1.349,2.809l-1.841,-0.886c-0.501,0.629 -1.095,1.156 -1.753,1.569l0.676,1.93l-2.939,1.031l-0.678,-1.93c-0.771,0.089 -1.564,0.05 -2.347,-0.128l-0.886,1.843l-2.809,-1.349l0.885,-1.843c-0.628,-0.5 -1.153,-1.094 -1.567,-1.753l-1.929,0.678l-1.033,-2.94l1.931,-0.677c-0.091,-0.772 -0.05,-1.565 0.129,-2.348l-1.844,-0.886l1.348,-2.808l1.844,0.885c0.499,-0.628 1.095,-1.155 1.752,-1.568l-0.677,-1.931l2.941,-1.031l0.677,1.929c0.771,-0.088 1.565,-0.049 2.347,0.13l0.887,-1.844l2.808,1.349l-0.885,1.844c0.628,0.499 1.154,1.093 1.567,1.751l1.93,-0.678l1.033,2.939l-1.93,0.678c0.089,0.776 0.048,1.569 -0.13,2.35Z" style="fill:#fff;fill-rule:nonzero;"/></svg>