<?xml version="1.0" standalone="no"?><!DOCTYPE svg PUBLIC "-//W3C//DTD SVG 1.1//EN" "http://www.w3.org/Graphics/SVG/1.1/DTD/svg11.dtd"><svg width="100%" height="100%" viewBox="0 0 88 100" version="1.1" xmlns="http://www.w3.org/2000/svg" xmlns:xlink="http://www.w3.org/1999/xlink" xml:space="preserve" style="fill-rule:evenodd;clip-rule:evenodd;stroke-linejoin:round;stroke-miterlimit:1.41421;"><g><path d="M87.127,100l-87.127,0l4.32,-7.636l77.398,0l5.409,7.636Z" style="fill:#fff;fill-rule:nonzero;"/><path d="M78.234,87.451l2.209,3.118l-10.588,0l-27.275,-11.303l-24.387,10.023l0.005,0.005l-3.1,1.274l-9.766,0l1.826,-3.225l7.487,-0.366l0,-16.538c5.553,-4.562 20.442,-6.608 27.792,-6.519l0,0.022l0.413,-0.017l0.048,0l0.425,0.017l0,-0.022c6.792,-0.084 20.891,1.784 26.99,5.925l0.137,17.288l7.784,0.318ZM65.96,81.94l0,-9.426c0,-0.318 -0.154,-0.604 -0.418,-0.813c-0.253,-0.211 -0.611,-0.336 -1.006,-0.336c-0.785,0 -1.418,0.516 -1.418,1.149l0,9.426c0,0.318 0.16,0.604 0.411,0.813c0.258,0.204 0.611,0.334 1.007,0.334c0.79,0 1.424,-0.513 1.424,-1.147ZM58.629,79.822l0,-10.2c0,-0.341 -0.16,-0.651 -0.412,-0.873c-0.256,-0.229 -0.61,-0.365 -1.005,-0.365c-0.791,0 -1.426,0.558 -1.426,1.238l0,10.2c0,0.347 0.156,0.657 0.42,0.878c0.251,0.229 0.611,0.365 1.006,0.365c0.781,0.002 1.417,-0.556 1.417,-1.243ZM51.298,78.223l0,-10.196c0,-0.341 -0.155,-0.654 -0.418,-0.881c-0.251,-0.227 -0.611,-0.364 -1.005,-0.364c-0.784,0 -1.42,0.557 -1.42,1.246l0,10.196c0,0.341 0.162,0.652 0.413,0.873c0.257,0.229 0.611,0.366 1.006,0.366c0.791,-0.001 1.424,-0.558 1.424,-1.24ZM43.968,77.416l0,-9.743c0,-0.327 -0.162,-0.628 -0.413,-0.844c-0.257,-0.216 -0.611,-0.348 -1.005,-0.348c-0.79,0 -1.423,0.534 -1.423,1.191l0,9.743c0,0.321 0.155,0.62 0.419,0.837c0.251,0.216 0.611,0.348 1.005,0.348c0.782,0.001 1.417,-0.533 1.417,-1.184ZM36.637,78.373l0,-10.2c0,-0.347 -0.155,-0.657 -0.419,-0.877c-0.251,-0.229 -0.61,-0.365 -1.005,-0.365c-0.784,0 -1.418,0.556 -1.418,1.244l0,10.199c0,0.342 0.161,0.652 0.413,0.873c0.258,0.229 0.611,0.366 1.005,0.366c0.789,0 1.424,-0.558 1.424,-1.24ZM29.306,79.822l0,-10.2c0,-0.341 -0.162,-0.651 -0.414,-0.873c-0.257,-0.229 -0.61,-0.365 -1.005,-0.365c-0.79,0 -1.424,0.558 -1.424,1.238l0,10.2c0,0.347 0.155,0.657 0.419,0.878c0.251,0.229 0.609,0.365 1.005,0.365c0.785,0.002 1.419,-0.556 1.419,-1.243ZM21.975,81.94l0,-9.426c0,-0.318 -0.157,-0.604 -0.419,-0.813c-0.251,-0.211 -0.611,-0.336 -1.005,-0.336c-0.784,0 -1.418,0.516 -1.418,1.149l0,9.426c0,0.318 0.161,0.604 0.413,0.813c0.257,0.204 0.609,0.334 1.005,0.334c0.789,0 1.424,-0.513 1.424,-1.147Z" style="fill:#fff;fill-rule:nonzero;"/><path d="M72.735,66.253c0.498,1.467 0.323,2.664 0.113,3.327c-0.329,-0.316 -0.701,-0.627 -1.113,-0.929c-6.611,-4.857 -22.243,-6.676 -28.838,-6.521c-0.019,0 -0.03,0 -0.048,0c-7.133,-0.155 -23.633,1.842 -29.666,7.192c0,0 -0.774,-1.487 -0.162,-3.064c1.173,-1.022 2.824,-1.991 4.925,-2.884c7.409,-3.154 18.94,-4.639 24.662,-4.53l0,0.012c0.078,-0.006 0.156,-0.006 0.258,-0.006c0.012,0 0.023,0 0.036,0c0.089,0 0.167,0 0.245,0.006l0,-0.011c4.787,-0.091 14.674,0.963 22.379,3.652c3.204,1.119 5.634,2.382 7.209,3.756Z" style="fill:#fff;fill-rule:nonzero;"/><path d="M67.762,53.255c-5.021,-5.613 -18.856,-8.071 -25.476,-7.87c-0.006,0 -0.019,0 -0.023,0c-6.081,-0.173 -20.223,2.006 -25.441,7.848c-0.006,0.012 -0.019,0.016 -0.024,0.028c-0.349,-2.78 0.7,-4.141 0.7,-4.141c1.359,-1.318 3.292,-2.526 5.756,-3.609c6.512,-2.849 14.788,-3.974 18.81,-3.878l0,0.019c0.065,-0.006 0.125,-0.012 0.215,-0.012c0.012,0 0.024,0 0.03,0c0.065,0 0.125,0.006 0.186,0.012l0,-0.019c3.944,-0.095 12.184,1.005 18.701,3.83c2.872,1.246 5.033,2.664 6.408,4.212c0.537,1.481 0.277,3.017 0.158,3.58Z" style="fill:#fff;fill-rule:nonzero;"/><path d="M66.564,54.616l0,6.343c-0.15,-0.056 -0.298,-0.107 -0.449,-0.161c-1.711,-0.598 -3.53,-1.113 -5.373,-1.562c0.012,-0.031 0.019,-0.061 0.019,-0.097l0,-5.027c0,-0.341 -0.502,-0.609 -1.118,-0.609c-0.623,0 -1.126,0.269 -1.126,0.609l0,4.627c-1.204,-0.25 -2.407,-0.473 -3.586,-0.658c0.025,-0.048 0.037,-0.097 0.037,-0.15l0,-5.47c0,-0.364 -0.502,-0.665 -1.119,-0.665c-0.622,0 -1.125,0.301 -1.125,0.665l0,5.291c-1.233,-0.174 -2.431,-0.312 -3.562,-0.421c0.012,-0.035 0.02,-0.07 0.02,-0.106l0,-5.821c0,-0.396 -0.503,-0.715 -1.127,-0.715c-0.615,0 -1.119,0.319 -1.119,0.715l0,5.756c-1.35,-0.085 -2.555,-0.12 -3.561,-0.106c0.012,-0.032 0.012,-0.063 0.012,-0.093l0,-6.051c0,-0.407 -0.502,-0.735 -1.119,-0.735c-0.622,0 -1.126,0.328 -1.126,0.735l0,6.051c0,0.029 0.006,0.066 0.019,0.097c-1.065,0.018 -2.262,0.084 -3.561,0.187l0,-5.756c0,-0.396 -0.502,-0.714 -1.126,-0.714c-0.622,0 -1.124,0.318 -1.124,0.714l0,5.828c0,0.046 0.005,0.09 0.023,0.138c-1.143,0.125 -2.339,0.281 -3.566,0.466l0,-5.457c0,-0.365 -0.503,-0.664 -1.125,-0.664c-0.616,0 -1.119,0.299 -1.119,0.664l0,5.47c0,0.12 0.055,0.234 0.156,0.328c-1.233,0.215 -2.471,0.468 -3.704,0.742l0,-4.89c0,-0.341 -0.502,-0.609 -1.119,-0.609c-0.622,0 -1.125,0.269 -1.125,0.609l0,5.027c0,0.133 0.078,0.258 0.216,0.354c-1.95,0.502 -3.848,1.096 -5.602,1.771l0,-7.07c4.722,-4.913 17.361,-7.121 23.532,-7.018l0,0.019c0.096,-0.006 0.192,-0.012 0.311,-0.012l0.066,0l0.359,0.018l0,-0.023c6.36,-0.1 19.567,2.282 23.911,7.436Z" style="fill:#fff;fill-rule:nonzero;"/><path d="M65.14,90.569l-45.314,0l22.688,-9.336l22.626,9.336Z" style="fill:#fff;fill-rule:nonzero;"/><path d="M46.516,24.076c6.362,2.299 11.378,9.229 13.879,19.121c-6.025,-2.292 -13.669,-3.496 -18.031,-3.351l-0.084,0c-3.777,-0.126 -11.616,0.851 -18.21,3.399c2.214,-10.162 7.463,-17.361 14.225,-19.402c2.697,-0.821 5.541,-0.736 8.221,0.233Z" style="fill:#fff;fill-rule:nonzero;"/><path d="M46.068,13.705l0,8.343c-2.363,-0.671 -4.811,-0.744 -7.187,-0.216l0,-7.905c0.496,-0.449 1.024,-0.796 1.568,-1.024c1.203,-0.521 2.52,-0.539 3.92,-0.053c0.718,0.25 1.305,0.591 1.699,0.855Z" style="fill:#fff;fill-rule:nonzero;"/><path d="M42.304,0c0.389,0.946 1.119,3.722 1.34,11.419c-0.903,-0.167 -1.789,-0.157 -2.628,0.047c-0.047,-6.319 0.708,-10.16 1.288,-11.466Z" style="fill:#fff;fill-rule:nonzero;"/></g></svg>