<?xml version="1.0" standalone="no"?><!DOCTYPE svg PUBLIC "-//W3C//DTD SVG 1.1//EN" "http://www.w3.org/Graphics/SVG/1.1/DTD/svg11.dtd"><svg width="100%" height="100%" viewBox="0 0 97 48" version="1.1" xmlns="http://www.w3.org/2000/svg" xmlns:xlink="http://www.w3.org/1999/xlink" xml:space="preserve" style="fill-rule:evenodd;clip-rule:evenodd;stroke-linejoin:round;stroke-miterlimit:1.41421;"><g><path d="M10.971,47.256l0.191,-1.215l1.275,0c0.053,-0.165 0.135,-0.327 0.31,-0.443l0.158,-0.105l0.188,0.023l0.031,0c0.086,0 0.13,-0.011 0.176,-0.021c0.051,-0.01 0.104,-0.02 0.158,-0.027c0.009,-0.054 0.013,-0.124 0.017,-0.223c0.007,-0.168 0.018,-0.349 0.062,-0.548c0.017,-0.076 0.044,-0.157 0.073,-0.234c0.018,0 -0.008,-0.05 -0.026,-0.087c-0.068,-0.133 -0.172,-0.333 -0.165,-0.589c0.006,-0.226 0.098,-0.409 0.165,-0.543c0.021,-0.041 0.052,-0.104 0.057,-0.126c0.07,-0.351 0.02,-0.775 -0.034,-1.225c-0.042,-0.346 -0.083,-0.7 -0.082,-1.058c0,-0.466 0.055,-0.996 0.166,-1.621c-0.289,-0.013 -0.549,0.005 -0.721,0.133l0,1.485c-0.234,-0.034 -0.392,0.009 -0.361,0.241c-0.292,-0.23 -0.448,-0.598 -1.084,-0.482c-0.201,0.04 0.053,-0.373 -0.201,-0.281c-0.231,0.011 -0.061,0.421 -0.281,0.442c-0.199,0.012 -0.368,-0.007 -0.521,-0.041c0.066,-0.602 0.032,-1.306 0.04,-1.967c-0.969,-0.027 -2.365,-0.357 -3.131,0.04l0,1.525c-0.16,-0.001 -0.119,-0.202 -0.121,-0.361c-0.333,-0.162 -0.699,-0.29 -1.003,-0.481c-0.295,0.213 -0.713,0.304 -0.603,0.923c-0.232,-0.03 -0.343,0.059 -0.562,0.04c-0.146,0.121 -0.156,0.38 -0.281,0.522c-0.233,-0.005 -0.379,0.075 -0.603,0.081c-0.089,0.057 -0.055,0.238 -0.12,0.32c-0.361,-0.12 -0.249,0.366 -0.562,0.281c-0.224,-0.062 -0.153,-0.253 -0.161,-0.643c-0.455,0.014 -0.829,0.107 -1.285,0.12c-0.086,0.383 -0.018,0.918 -0.04,1.365c-0.732,0.137 -1.213,-0.129 -1.767,-0.281c0.008,0.567 0.217,0.934 0.241,1.485c-0.174,0.233 -0.166,0.469 -0.401,0.683c-0.055,0.198 0.124,0.397 0.121,0.602c-0.003,0.16 -0.127,0.187 -0.161,0.362c-0.015,0.074 0.032,0.39 0.04,0.521c0.028,0.429 0.273,1.175 0.241,1.565c-0.023,0.285 -0.321,0.455 -0.2,0.722c1.126,0.02 5.005,0.034 10.62,0.046c0.047,-0.311 0.097,-0.619 0.147,-0.925Z" style="fill:#fff;"/><path d="M93.732,47.094c-0.221,0.034 -0.052,-0.321 -0.16,-0.4l-1.004,0c-0.22,-0.208 -0.456,-0.401 -0.481,-0.803c-0.15,-0.064 -0.262,-0.167 -0.482,-0.161c-0.004,-0.277 -0.162,-0.398 -0.32,-0.521c-0.167,0.06 -0.255,-0.179 -0.602,-0.08c-0.055,-0.174 -0.068,-0.387 -0.081,-0.603c-0.303,0.048 -0.475,-0.033 -0.562,-0.2c-0.241,-0.082 -0.104,0.216 -0.279,0.2l-0.764,0c-0.003,0.52 -0.017,1.027 -0.08,1.485c-0.034,0.111 -0.531,0.034 -0.683,0c0.006,-0.554 -0.069,-1.027 -0.04,-1.605c-0.195,-0.409 -0.457,-0.643 -0.683,-1.084l-0.883,0c-0.207,0.302 -0.422,0.596 -0.441,1.084c-0.084,-0.029 -0.17,0.039 -0.282,0c-0.298,-0.104 -0.051,-1.865 -0.16,-2.409c-0.325,-0.074 -0.716,-0.087 -1.123,-0.079l0,-2.088c0,-0.712 0.122,-1.544 0,-2.048c-0.066,-0.274 -0.338,-0.42 -0.522,-0.562l-1.203,0c-0.173,-0.943 0.23,-2.286 0,-3.131c-0.104,-0.376 -0.545,-0.491 -0.764,-0.723l-3.091,0c-0.093,2.329 -0.014,4.831 -0.041,7.226c-0.306,-0.055 -0.506,-0.217 -0.802,-0.281c0.002,-0.203 -0.069,-0.332 -0.04,-0.562c-0.723,-0.04 -1.405,-0.119 -2.127,-0.16c-0.108,0.067 0.021,0.37 -0.08,0.441l-1.045,0c0.005,0.839 0.096,1.874 0.121,2.77c0.004,0.16 0.099,0.488 -0.121,0.562c-0.26,-0.031 -0.188,-0.399 -0.201,-0.562c-0.015,-0.223 0.022,-0.49 -0.04,-0.682c-0.127,-0.39 -0.542,-0.562 -0.722,-0.844l-2.971,0c-0.092,0.109 -0.015,0.388 -0.04,0.563l-0.883,0c-0.056,-0.548 -0.041,-1.165 -0.041,-1.767c-0.858,-0.589 -2.72,-0.38 -2.97,0.602c-0.124,0.486 0.082,0.914 -0.361,1.205l-0.884,0l0,-0.764l-1.966,0c-0.024,-2.839 0.05,-5.777 -0.041,-8.549c-0.017,-0.117 -0.303,0.035 -0.32,-0.081l0,-0.962c0.025,-0.174 -0.282,-0.014 -0.322,-0.121l0,-0.723c-0.043,-0.13 -0.232,-0.115 -0.24,-0.281c-0.116,-0.672 -0.56,-1.369 -0.723,-2.087c-0.223,-0.986 -0.004,-2.007 -0.241,-3.05c-0.233,0.277 -0.105,0.69 -0.12,1.004c-0.027,0.632 0.009,1.312 -0.079,1.926c-0.118,0.824 -0.645,1.602 -0.804,2.289c0.081,0.201 -0.183,0.058 -0.2,0.16l0,0.723c0.049,0.183 -0.272,-0.004 -0.282,0.12l0,1.043c0.026,0.159 -0.22,0.048 -0.32,0.081l0,7.345c-0.154,-0.247 -0.205,-0.597 -0.281,-0.923c-0.198,-0.043 -0.132,-0.349 -0.2,-0.521c-0.21,0.098 -0.063,0.552 -0.441,0.481c0.006,0.756 -0.132,1.367 -0.16,2.088c-0.368,-0.02 -0.678,0.019 -1.004,0.039c-0.172,-0.017 -0.038,-0.337 -0.081,-0.481l-0.44,0c-0.108,0.294 -0.124,0.679 -0.161,1.044c-0.188,0.106 -0.351,0.238 -0.603,0.28c-0.016,-0.225 -0.062,-0.419 -0.041,-0.683c-0.102,-0.097 -0.415,0.016 -0.481,-0.12c0.114,-0.844 0.003,-1.61 -0.28,-2.167c-0.383,0.045 -0.569,0.287 -1.003,0.281c-0.219,-0.156 -0.156,-0.593 -0.402,-0.723c-0.05,-0.391 0.104,-0.987 -0.08,-1.245c-0.45,-0.113 -0.149,0.651 -0.241,0.964c-0.133,0.459 -0.813,0.539 -0.923,0.883c-0.156,0.776 0.209,2.089 0,2.771c-0.081,0.266 -0.419,0.381 -0.562,0.481c-0.004,-0.479 -0.067,-0.896 -0.04,-1.405c-0.177,-0.266 -0.552,-0.332 -0.764,-0.562l0,-2.207c-0.348,-0.387 -1.174,-0.299 -1.846,-0.362c-0.103,0.354 0.023,0.934 -0.121,1.245c-0.678,0.021 -0.769,-0.543 -1.204,-0.763c-0.367,-0.02 -0.676,0.02 -1.003,0.04c-0.14,0.129 -0.236,0.3 -0.401,0.401c-0.022,0.127 0.062,0.568 -0.081,0.442c-0.417,-0.012 -0.104,-0.754 -0.201,-1.084c-0.399,-0.511 -1.627,-0.193 -2.449,-0.282c-0.057,0.774 -0.042,1.984 -0.08,2.851c-0.023,0.527 0.12,1.186 -0.361,1.244l0,-12.685c0,-1.065 0.158,-2.015 -0.441,-2.448l-3.211,0c-0.093,4.242 -0.013,8.657 -0.04,12.965c-0.207,0.033 -0.355,0.126 -0.602,0.12c-0.093,-4.215 -0.014,-8.603 -0.04,-12.886c-0.253,-0.169 -0.401,-0.623 -0.763,-0.722c-0.352,-0.097 -0.755,0.069 -1.245,0c0,-1.109 0,-2.288 0,-3.533c0,-0.307 0.109,-1.003 -0.16,-1.003c-0.267,0 -0.161,0.711 -0.161,1.044l0,3.532c-0.514,0.021 -1.012,0.059 -1.565,0.04c0,4.831 -0.014,9.674 0.04,14.451c-0.175,0.052 -0.334,0.121 -0.562,0.12c-0.075,-1.37 -0.078,-2.812 -0.12,-4.215c-0.221,-0.11 -0.562,-0.383 -1.124,-0.281c-0.216,0.007 -0.004,0.192 -0.121,0.281c-0.322,0.039 -0.659,0.062 -1.003,0.081c-0.103,0.171 0.056,0.424 0,0.682c-0.481,-0.15 -0.813,0.134 -1.165,0.24l0,2.891c-0.182,0.03 -0.6,-0.386 -0.843,-0.562c-0.04,-0.51 0.164,-1.261 -0.321,-1.325c0.149,-0.419 -0.272,-0.539 -0.361,-0.843c-0.046,-0.159 0.024,-0.354 0,-0.521c-0.106,-0.724 -0.727,-1.566 -1.325,-1.687c-1.584,-0.319 -2.082,1.404 -2.168,2.85c-0.185,-0.188 -0.221,-0.528 -0.361,-0.763c-0.218,0.011 -0.391,0.065 -0.642,0.04c-0.131,0.219 -0.192,0.505 -0.322,0.723c-0.14,-0.014 -0.284,-0.001 -0.425,0.032c-0.035,0.313 0.048,0.676 0.14,1.076c0.107,0.468 0.218,0.95 0.162,1.453c-0.024,0.211 -0.111,0.391 -0.181,0.534c-0.031,0.062 -0.078,0.158 -0.083,0.194c-0.026,0.318 0.071,0.747 0.166,1.161c0.056,0.248 0.112,0.495 0.147,0.729c0.058,0.381 0.104,0.75 0.148,1.116c0.021,0.168 0.042,0.336 0.063,0.504c0.11,0.01 0.223,0.016 0.342,0.016c0.059,0 0.119,-0.001 0.181,-0.005l0.508,-0.03l0.033,0.508c0.003,0.052 0.004,0.105 0.005,0.159c0.092,-0.002 0.186,-0.016 0.283,-0.028c0.157,-0.021 0.32,-0.04 0.486,-0.04c0.088,0 0.177,0.005 0.268,0.018l0.365,0.051l0.067,0.363c0.153,0.823 0.014,1.378 -0.197,1.852c24.237,0.019 56.976,0.006 67.968,-0.027l0,-1.085l-2.289,0l0,0Z" style="fill:#fff;"/><path d="M12.872,0.396c0.069,0.739 1.031,0.861 0.688,1.694c0.477,0.011 0.488,0.302 0.688,0.794c0.245,0.604 0.03,0.837 -0.583,1.059c0.079,0.414 -0.227,0.444 -0.211,0.794c0.963,0.987 0.748,2.891 1.059,4.764c0.197,1.188 0.409,2.328 0.423,3.388c0.418,0.182 1.018,0.182 1.482,0.318c0.089,-0.264 0.364,-0.342 0.423,-0.636c-0.359,-0.7 -0.75,-1.368 -1.059,-2.118c0.597,0.55 0.915,1.379 1.588,1.853c0.248,-0.034 0.379,-0.186 0.688,-0.158c0.102,-0.834 0.072,-1.799 0.265,-2.542c0.121,0.78 0.204,1.596 0.212,2.488c0.277,0.057 0.516,0.154 0.794,0.211c0.581,-0.564 0.98,-1.594 1.535,-2.011c-0.32,0.793 -0.899,1.604 -1.059,2.382c0.08,0.15 0.233,0.226 0.265,0.424c0.861,-0.251 1.509,-0.715 2.33,-1.006c-0.236,0.256 -0.662,0.442 -1.112,0.741c-0.44,0.292 -1.179,0.528 -0.953,1.217c0.655,0.157 1.584,-0.141 2.276,0.053c-0.782,0.135 -1.605,0.23 -2.329,0.423c-0.098,0.34 0.026,0.554 0.053,0.9c-0.024,0.135 -0.372,-0.053 -0.265,0.212c0.024,0.489 0.374,0.845 0.371,1.271c-0.001,0.21 -0.201,0.339 -0.212,0.529c-0.032,0.532 0.537,0.926 0.529,1.589c0.35,0.372 0.79,0.347 1.111,0.688c0.491,0.52 0.382,1.284 0.583,2.012c0.126,0.46 0.47,0.716 0.582,1.111c0.425,0.139 0.708,0.421 1.005,0.688c0.231,-0.334 0.423,-0.707 0.636,-1.059c0.4,0.101 0.394,-0.243 0.582,-0.476c0.955,0.457 2.363,0.46 3.176,1.059c0.038,0.279 -0.262,0.353 0,0.688c-0.082,0.236 -0.268,0.367 -0.317,0.635c0.039,0.25 0.322,0.417 0.265,0.742c-0.037,0.204 -0.416,0.366 -0.583,0.582c-0.4,0.516 -0.774,1.542 -1.641,1.641c-0.174,0.587 -0.656,0.913 -0.9,1.536c-0.18,0.462 -0.129,0.995 -0.317,1.429c-0.113,0.261 -0.422,0.347 -0.529,0.583c0.486,1.659 0.375,3.616 0.741,5.346c-0.188,0.306 -0.317,0.672 -0.529,0.953c0.094,0.225 0.142,0.494 0.211,0.741c-0.567,0.939 0.223,2.088 0.106,3.123c-0.028,0.249 -0.245,0.497 -0.265,0.741c-0.05,0.605 0.218,1.357 0.317,2.011c0.105,0.693 0.168,1.344 0.265,2.012c0.319,0.033 0.631,0.075 1.006,0.053c0.015,0.232 -0.037,0.53 0.159,0.582c0.395,0.155 0.841,-0.067 1.323,0c0.222,1.198 -0.264,1.678 -0.635,2.488c-0.201,0.439 -0.527,0.99 -0.582,1.376c-0.137,0.948 0.262,1.981 0.265,3.07c2.41,-0.046 4.896,0.105 7.305,0.105c2.413,0 4.807,0.064 6.987,0.371c-3.887,0.523 -8.112,0.71 -12.228,1.006c1.14,0.324 2.613,0.315 3.706,0.688c-0.83,0 -1.659,0 -2.488,0c-2.861,-0.191 -6.046,-0.059 -8.628,-0.529c2.354,-0.46 5.018,-0.498 7.728,-0.688c0.323,-0.022 1.263,-0.085 1.059,-0.105c-2.091,-0.208 -4.443,0.053 -6.776,0.053c-5.597,0 -11.32,0.269 -16.832,0c-0.506,-0.024 -1.071,-0.051 -1.588,-0.105c-0.388,-0.041 -1.08,0.047 -1.217,-0.477c0.52,-0.38 1.268,-0.231 1.958,-0.265c1.955,-0.093 4.392,-0.094 6.458,-0.159c0.001,-0.721 -0.021,-1.468 0.053,-2.117c-0.371,-0.034 -0.882,0.07 -1.165,-0.053c-0.042,-1.718 0.255,-3.098 0.477,-4.552c0.388,0 0.776,0 1.164,0c0.16,-0.105 0.105,-0.424 0.265,-0.53c0.301,0.037 0.44,-0.089 0.741,-0.052c0.298,-0.347 0.16,-0.688 0.265,-1.165c0.028,-0.132 0.11,-0.271 0.105,-0.371c-0.012,-0.221 -0.218,-0.398 -0.211,-0.635c0.005,-0.201 0.172,-0.387 0.211,-0.582c0.144,-0.72 -0.107,-1.54 -0.105,-2.382c0,-0.506 0.07,-1.042 0.158,-1.536c0.081,-0.449 0.323,-0.949 0.318,-1.375c-0.003,-0.235 -0.165,-0.462 -0.159,-0.689c0.009,-0.42 0.314,-0.783 0.37,-1.164c0.102,-0.689 -0.006,-1.7 -0.106,-2.487c-0.051,-0.409 -0.286,-0.773 -0.317,-1.165c-0.017,-0.214 0.091,-0.49 0.053,-0.688c-0.059,-0.302 -0.398,-0.527 -0.423,-0.847c-0.083,-1.062 0.905,-1.509 0.688,-2.647c-1.333,0.032 -1.5,-0.596 -1.112,-1.8c0.127,-0.394 0.207,-0.843 0.318,-1.111c0.14,-0.337 0.53,-0.615 0.529,-0.953c-0.001,-0.517 -0.556,-0.603 -0.371,-1.216c-0.346,-0.017 -0.357,-0.472 -0.582,-0.689c-0.109,-0.105 -0.296,-0.163 -0.318,-0.37c-0.023,-0.22 0.304,-0.52 0.318,-0.794c0.023,-0.436 -0.322,-0.774 0.053,-1.006c-0.162,-0.492 -0.742,-0.606 -0.794,-1.111c-0.03,-0.298 0.219,-0.571 0.212,-0.848c-0.021,-0.801 -0.926,-1.018 -0.794,-2.063c0.055,-0.432 0.333,-0.783 0.582,-1.218c0.185,-0.324 0.579,-0.763 0.635,-1.165c0.097,-0.682 -0.311,-1.52 -0.423,-2.382c-0.11,-0.846 -0.019,-1.632 0.053,-2.593c-0.38,-0.366 -0.653,-1.269 -0.423,-1.906c-0.391,-0.513 -0.654,-1.524 -0.477,-2.276c-0.141,-0.213 -0.532,-0.556 -0.264,-0.847c-0.746,-0.202 -0.411,-0.801 -0.318,-1.483c0.101,-0.181 0.448,-0.116 0.477,-0.37c-0.135,-0.367 0.004,-0.679 -0.317,-0.847c0.364,0.011 0.212,-0.493 0.317,-0.742c0.366,0.191 0.486,0.064 0.794,-0.053c0.052,-0.003 0.105,-0.003 0.158,-0.003ZM15.677,14.053c0.159,0 0.318,0 0.477,0c-0.042,-0.218 0.082,-0.272 0.053,-0.477c-0.35,-0.056 -0.75,-0.342 -1.059,-0.265c0.33,0.094 0.413,0.435 0.529,0.742ZM16.048,15.747c0.188,0.029 0.232,-0.086 0.318,-0.159c-0.143,-0.304 -0.114,-0.799 -0.37,-1.218c-0.054,0 -0.106,0 -0.159,0c0.08,0.45 0.03,1.027 0.211,1.377ZM19.542,18.764c0.193,-0.017 0.344,0.008 0.477,0.053c-0.039,-0.615 -0.547,-0.757 -0.583,-1.376c-0.106,0.445 -0.015,0.95 0.106,1.323Z" style="fill:#fff;"/></g></svg>