<?xml version="1.0" standalone="no"?><!DOCTYPE svg PUBLIC "-//W3C//DTD SVG 1.1//EN" "http://www.w3.org/Graphics/SVG/1.1/DTD/svg11.dtd"><svg width="100%" height="100%" viewBox="0 0 55 81" version="1.1" xmlns="http://www.w3.org/2000/svg" xmlns:xlink="http://www.w3.org/1999/xlink" xml:space="preserve" style="fill-rule:evenodd;clip-rule:evenodd;stroke-linejoin:round;stroke-miterlimit:1.41421;"><path d="M46.077,73.622c-0.409,-0.616 -2.281,-1.827 -2.281,-1.827c-0.492,-1.028 -2.461,-1.904 -2.461,-1.904c-0.224,-1.117 -1.254,-4.874 -1.254,-4.874c0.485,-0.073 1.135,-0.56 1.03,-1.295c-0.038,-0.265 -0.594,-1.786 -0.806,-2.36c-0.464,-1.259 -0.542,-3.428 -0.367,-3.278c0,0 1.073,0.004 1.239,-0.357c0.188,-0.408 -0.246,-0.516 -0.246,-0.516c0.354,-0.151 0,-0.419 0,-0.419c0.27,-0.229 -0.403,-0.539 -0.066,-1.084c0.141,-0.228 0.043,-0.383 0.043,-0.383l13.522,0.592c0,0 -13.366,-2.391 -13.292,-2.65c0.124,-0.421 -0.072,-2.301 -0.072,-2.301c0.319,-0.048 12.183,-3.995 12.183,-3.995c-0.465,0.069 -12.675,1.978 -12.675,1.978c-0.33,-1.264 -1.835,-2.476 -1.7,-2.59l8.143,-8.415l-9.932,7.236c-1.529,-0.962 -3.365,-1.305 -3.365,-1.456c0,-0.381 -0.102,-12.674 -0.17,-12.145c-0.07,0.544 -2.044,12.039 -2.192,12.039c-2.559,0 -3.981,0.838 -3.981,0.838c-0.179,-0.152 -9.069,-9.609 -8.684,-8.925c0.206,0.366 6.626,9.954 6.626,9.954c-0.687,0.104 -2.372,2.246 -2.372,2.246c-0.105,-0.089 -6.979,-0.497 -6.979,-0.686c0,0 -1.03,-2.014 -0.984,-2.171c0.771,-2.634 -0.535,-8.956 -0.535,-9.405c0,-0.45 -0.54,-3.081 -0.705,-3.643c-0.226,-0.76 -0.16,-3.396 -0.16,-3.929c0,-0.532 0.408,-2.66 0.408,-3.11c0,-0.45 0.316,-0.619 0.409,-1.104c0.112,-0.6 0.077,-1.718 0.247,-2.246c0,0 -0.167,-2.213 -0.151,-2.379c0.056,-0.578 -0.805,-2.06 -0.625,-2.128c6.039,-2.28 4.186,-5.525 4.206,-5.7c0.432,-3.517 -2.717,-5.183 -2.474,-5.473c0.562,-0.669 0.174,-1.596 0.174,-1.596c-0.337,-0.287 -0.479,-0.4 -0.479,-0.485c0,-0.8 -0.755,-1.359 -0.755,-1.359c-0.913,-0.513 -1.149,-0.838 -1.296,-1.386c-0.065,-0.245 -0.409,-0.05 -1.167,-0.05c-0.721,0 -1.77,0.844 -2.244,1.071c-0.683,0.327 -0.821,1.351 -0.821,1.351c-0.779,0.269 -0.769,1.105 -0.769,1.105c-4.061,1.548 -4.757,4.637 -5,5.02c-2.386,3.761 1.804,6.377 1.804,6.377c0,0 0.284,0.193 0.215,0.389c-0.379,1.095 0.079,1.137 0.161,1.357c0.192,0.521 0.203,1.025 0.171,1.139c-0.155,0.545 -0.486,1.7 -0.452,1.924c0.191,1.271 0.967,2.436 0.938,2.619c-0.219,1.36 0.674,1.455 0.674,1.677c0,1.047 0.309,0.881 0.309,1.045c0,0.345 0.144,0.365 0.118,0.483c-0.307,1.381 -0.976,7.174 -1.066,7.382c-0.994,2.279 -0.154,7.972 0.01,8.79c0.165,0.818 0.455,1.087 0.485,1.29c0.183,1.226 0.043,1.429 0.043,1.757c0,0.326 0.149,4.423 0.149,4.423c-0.337,0.287 -1.829,1.472 -2.119,1.719c-0.776,0.66 -0.982,1.412 -1.247,1.637c-2.513,2.139 -2.981,3.848 -2.981,3.848c-0.805,3.447 0.843,3.661 1.01,4.05c0.818,1.909 2.804,1.615 2.663,1.735c-0.24,0.205 -0.938,0.687 -1.125,1.253c-0.149,0.456 0.261,0.489 0.261,0.489c-1.135,0.965 -1.637,3.691 -1.222,4.586c0.449,0.972 1.231,1.253 1.264,1.543c0.128,1.126 1.384,0.835 1.306,1.076c-0.425,1.304 -0.478,2.68 -0.478,2.68c0,0.853 0.409,0.84 0.409,0.84c-0.583,0.799 -1.445,2.366 -1.562,3.085c-0.231,1.414 0.233,1.478 0.601,1.897l45.985,0c-0.426,-0.717 -0.751,-3.457 -1.433,-4.418c-0.003,-0.003 -1.858,-2.173 -2.061,-2.478ZM17.757,49.027c0,0 -0.526,-0.707 -0.291,-0.594c0.732,0.351 4.407,1.161 4.407,1.161c-0.085,0.208 -0.514,1.881 -0.514,2.095c0,0 -1.009,-0.178 -2.685,-0.096c0,0 -0.793,-0.745 -0.829,-0.876c0,0 0.135,-0.037 0.135,-0.267c0,0.001 -0.088,-0.489 -0.223,-1.423ZM21.878,57.686c0,0 -0.416,0.527 -0.609,0.362c0,0 -0.294,-0.027 -1.521,-1.504c0,0 -0.748,-0.562 -1.052,-0.685c0,0 0.029,-0.829 -0.269,-1.029c0,0 0.073,-0.681 -0.245,-0.799c0,0 -0.105,-0.691 0,-0.647c0.201,0.084 3.064,0.267 3.064,0.267c0.134,0 0.156,0.275 0.068,0.429c0,0 -0.394,2.77 0.563,2.77c0.001,-0.001 0.119,0.648 0.001,0.836Z" style="fill:#fff;fill-rule:nonzero;"/></svg>