<?xml version="1.0" standalone="no"?><!DOCTYPE svg PUBLIC "-//W3C//DTD SVG 1.1//EN" "http://www.w3.org/Graphics/SVG/1.1/DTD/svg11.dtd"><svg width="100%" height="100%" viewBox="0 0 55 100" version="1.1" xmlns="http://www.w3.org/2000/svg" xmlns:xlink="http://www.w3.org/1999/xlink" xml:space="preserve" style="fill-rule:evenodd;clip-rule:evenodd;stroke-linejoin:round;stroke-miterlimit:1.41421;"><g><path d="M24.105,8.533l-3.105,11.467c0,0 1.831,-4.457 4,-5c0.981,-0.246 4.047,-0.108 4.047,-0.108l-1.687,0.873c0,0 -0.36,2.235 -3.36,2.235l-1.191,6.2c0,0 5.107,-2.47 6.238,-3.497c0,0 6.078,4.318 7.632,2.467c0,0 1.084,-0.41 -3.25,-3.086c0,0 1.381,-1.808 1.45,-4.085c0.121,-3.999 -4.879,-7.999 -9.318,-5.63c-0.597,0.319 -0.986,-2.445 -1.456,-1.836Z" style="fill:#fff;fill-rule:nonzero;"/><path d="M21.909,18.789l-1.741,6.799l1.741,-2.082l1.43,-6.824l-1.43,2.107Z" style="fill:#fff;fill-rule:nonzero;"/><path d="M21,69c0,0 -0.301,1.686 1,13c0,0 -0.146,6.326 -1,9c-0.852,2.675 0,0.823 0,0.823c0,0 -1.441,2.119 -3.825,2.738c0,0 0,1.026 6.717,-1.854l1.302,-0.412c0,0 3.591,-12.713 3.854,-17.241c-0.001,0.001 -4.048,-5.054 -8.048,-6.054Z" style="fill:#fff;fill-rule:nonzero;"/><path d="M31.222,72.602c0,0 1,5.184 1.889,10.398c0.593,3.476 1.89,7 1.302,8.94c0,0 -1.613,2.057 -3.19,2.88c0,0 4.612,-0.999 6.778,-1.82c0,0 2.036,-10.54 1,-15c-0.001,0 -4.468,-4.576 -7.779,-5.398Z" style="fill:#fff;fill-rule:nonzero;"/><path d="M25.287,93.907c0,0 -3.109,0.696 -6.262,1.535c-3.206,0.851 -6.12,-0.952 -6.526,2.403c0,0 -1.47,2.115 6.403,1.12l3.911,-0.479c0,0 3.611,1.502 2.474,-4.579Z" style="fill:#fff;fill-rule:nonzero;"/><path d="M38.179,93.834c0,0 -2.794,0.735 -5.628,1.61c-2.883,0.891 -5.439,-0.865 -5.886,2.482c0,0 -1.366,2.128 5.689,1.031l3.501,-0.528c0,0.001 3.187,1.45 2.324,-4.595Z" style="fill:#fff;fill-rule:nonzero;"/><path d="M11.973,33.938c-0.091,-0.343 -0.256,-1.029 -0.461,-1.895c-0.441,1.305 -1.366,3.628 -2.051,5.316c0.211,0.609 0.402,1.069 0.561,1.311c1.084,1.646 2.818,0 2.818,0c0.649,-3.292 5.418,-8.642 5.418,-8.642c-1.518,0.207 -6.285,3.91 -6.285,3.91Z" style="fill:#fff;fill-rule:nonzero;"/><path d="M9.688,24.2c0,0 0.183,0.443 0.441,1.101c0.083,-0.188 -0.027,-0.529 -0.441,-1.101Z" style="fill:#fff;fill-rule:nonzero;"/><path d="M10.129,25.86c-0.027,0.058 -0.073,0.099 -0.137,0.124c-0.724,0.326 -3.654,-1.116 -3.654,-1.116c-1.951,4.484 2.285,13.371 2.285,13.371c0,0 0.36,-0.769 0.838,-1.806c0.685,-1.49 1.609,-3.542 2.051,-4.696c0.129,-0.341 0.217,-0.604 0.245,-0.749c0.13,-0.704 -0.983,-3.555 -1.628,-5.128Z" style="fill:#fff;fill-rule:nonzero;"/><path d="M7.601,0.01c0,0 1.047,5.63 1.297,5.674c0.248,0.039 -1.421,0.935 -1.364,2.045c0,0 0.117,0.158 -0.238,0.734c0,0 -0.878,0.382 -0.475,-1.219c0,0 -0.303,-0.334 -0.955,-0.798c-0.001,0 0.489,-5.242 1.735,-6.436Z" style="fill:#fff;fill-rule:nonzero;"/><path d="M6,22l1.866,-12.655c0.112,-0.063 0.07,-1.439 -0.289,-1.238c-0.359,0.201 -0.563,0.204 -1.052,0.123c-0.348,-0.057 0.276,-0.494 0.333,-0.533c-0.02,0.014 -0.104,0.072 -0.306,0.197c-0.907,0.567 -0.783,1.812 -0.863,2.398c-0.14,1.004 -0.321,2.573 -0.498,4.181c-0.148,1.335 -0.952,5.941 -1.191,6.527c0.758,-0.139 1.366,0.857 2,1Z" style="fill:#fff;fill-rule:nonzero;"/><path d="M4.628,17.763c0.002,0.239 0.005,0.48 0.01,0.725l-3.984,71.506c0,0 0.347,1.007 1.377,1.045l1.318,-25.723l3.651,-50.316c-0.465,-0.629 -1.686,3.821 -2.372,2.763Z" style="fill:#fff;fill-rule:nonzero;"/><path d="M9.372,22.83c0.649,-2.267 -1.848,-4.641 -2.624,-5.151c-0.623,-0.412 -1.346,-0.743 -2.11,-0.541c-0.012,0.002 -0.021,0.003 -0.033,0.006c-1.734,0.487 -1.517,2.188 -1.301,4.245c0.049,0.461 0.229,0.807 0.478,1.08c0.687,0.756 1.907,0.943 2.372,1.395c0.116,0.113 0.185,0.245 0.185,0.406c0,0 2.931,1.63 3.654,1.266c-0.359,-1.563 -0.621,-2.706 -0.621,-2.706Z" style="fill:#fff;fill-rule:nonzero;"/><path d="M28.009,68.929c0,0 1.038,4.346 1.038,6.126l0.757,0l0,-3.055c0,0 4.196,0 10.196,6.1c0.994,1.01 5.043,2.423 5.563,1.104c0.182,-0.46 -1.199,2.675 0.867,1.778c4.57,-1.982 6.752,-25.922 6.752,-25.922c0,0 -6.751,18.926 -25.173,13.869Z" style="fill:#fff;fill-rule:nonzero;"/><path d="M23.11,25.588c0,0 3.89,-5.588 13.688,-1.388c-10.896,-1.575 -14.703,3.205 -14.703,3.205l1.015,-1.817Z" style="fill:#fff;fill-rule:nonzero;"/><path d="M26,9l-1.615,-4.268c0,0 16.772,-1.298 14.382,12.268l-3.659,-0.947c-0.001,0 -0.108,-8.053 -9.108,-7.053Z" style="fill:#fff;fill-rule:nonzero;"/><path d="M32.994,24.2c-11.729,0 -21.237,10.132 -21.237,22.632c0,12.496 9.508,22.629 21.237,22.629c11.729,0 21.238,-10.133 21.238,-22.629c0,-12.5 -9.509,-22.632 -21.238,-22.632ZM32.994,66.265c-10.072,0 -18.237,-8.702 -18.237,-19.433c0,-10.734 8.165,-19.436 18.237,-19.436c10.072,0 18.238,8.701 18.238,19.436c0,10.731 -8.166,19.433 -18.238,19.433Z" style="fill:#fff;fill-rule:nonzero;"/><g><path d="M27,36.999c4,3.001 5.479,4.173 0.606,-7.286c4.873,11.459 4.933,8.725 5.394,5.287c-0.461,3.438 2.04,4.013 5.278,-5.287c-4.278,12.287 1.054,8.82 3.722,8.286c1.45,-0.519 -1.602,0.434 4.91,-1.824c-4.401,1.525 -7.031,2.01 -8.91,2.824c0.143,-0.045 7.85,-0.953 8,-1c-0.151,0.048 -2,0 -5,1c-5,2.001 0,4.001 4,6c2.157,1.078 -0.662,-0.174 5.161,1.618c-0.109,-10.008 -7.749,-18.09 -17.167,-18.09c-5.76,0 -10.845,3.032 -13.961,7.67c13.436,4.975 11.905,3.756 7.967,0.802Z" style="fill:#fff;fill-rule:nonzero;"/><path d="M48,52.999c-8.666,-8.201 -15.425,-11.72 -1.09,4.091c-14.335,-15.811 -9.44,-9.735 -3.91,2.91c-5.53,-12.645 -10.458,-18.59 -4.722,3.553c-5.736,-22.143 -5.739,-14.894 -5.278,-0.554c-0.461,-14.34 -0.566,-21.604 -5.394,0.554c4.828,-22.157 2.004,-17.199 -2.606,-4.553c4.61,-12.646 7.408,-17.737 -6.026,-1.91c13.434,-15.827 9.772,-12.292 2.026,-4.091c5.445,-5.765 10.769,-11.087 5.415,-9.702c-0.512,0.179 -1.069,0.374 -1.683,0.588c0.592,-0.207 1.132,-0.396 1.63,-0.575c-2.239,0.583 -5.673,1.694 -10.532,3.272c-0.001,0.084 -0.012,0.166 -0.012,0.25c0,10.104 7.69,18.302 17.176,18.302c9.486,0 17.177,-8.197 17.177,-18.302c0,-0.072 -0.01,-0.143 -0.01,-0.215c-17.631,-5.426 -10.819,-1.811 -2.161,6.382Z" style="fill:#fff;fill-rule:nonzero;"/><path d="M19.033,36.197c-1.973,2.936 -3.154,6.511 -3.203,10.385c6.773,-2.198 7.316,-2.993 9.17,-3.582c3.423,-1.523 4.703,-2.852 -5.967,-6.803Z" style="fill:#fff;fill-rule:nonzero;"/></g></g></svg>