<?xml version="1.0" standalone="no"?><!DOCTYPE svg PUBLIC "-//W3C//DTD SVG 1.1//EN" "http://www.w3.org/Graphics/SVG/1.1/DTD/svg11.dtd"><svg width="100%" height="100%" viewBox="0 0 90 90" version="1.1" xmlns="http://www.w3.org/2000/svg" xmlns:xlink="http://www.w3.org/1999/xlink" xml:space="preserve" style="fill-rule:evenodd;clip-rule:evenodd;stroke-linejoin:round;stroke-miterlimit:1.41421;"><path d="M83.555,55.333c0.937,-3.505 6.445,-6.532 6.445,-10.333c0,-3.801 -5.508,-6.828 -6.444,-10.333c-0.969,-3.627 2.258,-8.996 0.421,-12.172c-1.864,-3.221 -8.145,-3.098 -10.759,-5.713c-2.614,-2.614 -2.491,-8.895 -5.713,-10.759c-3.176,-1.837 -8.545,1.39 -12.172,0.421c-3.505,-0.936 -6.532,-6.444 -10.333,-6.444c-3.801,0 -6.828,5.508 -10.333,6.444c-3.627,0.969 -8.996,-2.258 -12.172,-0.421c-3.221,1.864 -3.098,8.145 -5.713,10.759c-2.614,2.614 -8.895,2.491 -10.759,5.713c-1.837,3.176 1.39,8.545 0.421,12.172c-0.936,3.505 -6.444,6.532 -6.444,10.333c0,3.801 5.508,6.828 6.444,10.333c0.969,3.627 -2.258,8.996 -0.421,12.172c1.864,3.221 8.145,3.098 10.759,5.713c2.614,2.614 2.491,8.895 5.713,10.759c3.176,1.837 8.545,-1.39 12.172,-0.421c3.505,0.936 6.532,6.444 10.333,6.444c3.801,0 6.828,-5.508 10.333,-6.444c3.627,-0.969 8.996,2.258 12.172,0.421c3.221,-1.864 3.098,-8.145 5.713,-10.759c2.614,-2.614 8.895,-2.491 10.759,-5.713c1.837,-3.176 -1.391,-8.545 -0.422,-12.172ZM39.184,60.311l-12.776,-12.856l6.205,-6.244l6.752,6.791l18.203,-18.313l6.024,6.061l-24.408,24.561Z" style="fill:#4caf50;fill-rule:nonzero;"/></svg>