<?xml version="1.0" standalone="no"?><!DOCTYPE svg PUBLIC "-//W3C//DTD SVG 1.1//EN" "http://www.w3.org/Graphics/SVG/1.1/DTD/svg11.dtd"><svg width="100%" height="100%" viewBox="0 0 72 68" version="1.1" xmlns="http://www.w3.org/2000/svg" xmlns:xlink="http://www.w3.org/1999/xlink" xml:space="preserve" style="fill-rule:evenodd;clip-rule:evenodd;stroke-linejoin:round;stroke-miterlimit:1.41421;"><path d="M36,0.625c-0.102,0 -0.211,0.056 -0.25,0.15l-0.975,2.4l-2.6,0.2c-0.101,0.008 -0.194,0.103 -0.225,0.2c-0.031,0.097 -0.002,0.209 0.075,0.275l1.975,1.675l-0.6,2.525c-0.018,0.074 0.005,0.164 0.05,0.225c0.045,0.061 0.099,0.096 0.175,0.1c0.052,0.003 0.106,0.002 0.15,-0.025l2.225,-1.375l2.225,1.375c0.087,0.053 0.193,0.035 0.275,-0.025c0.082,-0.06 0.124,-0.176 0.1,-0.275l-0.6,-2.525l1.975,-1.675c0.078,-0.066 0.107,-0.178 0.075,-0.275c-0.032,-0.097 -0.124,-0.192 -0.225,-0.2l-2.6,-0.2l-0.975,-2.4c-0.039,-0.094 -0.148,-0.15 -0.25,-0.15ZM27.1,3.6c-0.061,0 -0.127,0.044 -0.15,0.1l-0.575,1.45l-1.55,0.125c-0.061,0.005 -0.131,0.042 -0.15,0.1c-0.019,0.058 0.004,0.111 0.05,0.15l1.175,1.025l-0.35,1.5c-0.011,0.044 -0.002,0.089 0.025,0.125c0.027,0.036 0.08,0.073 0.125,0.075c0.031,0.002 0.049,-0.009 0.075,-0.025l1.325,-0.8l1.325,0.8c0.052,0.032 0.126,0.036 0.175,0c0.049,-0.036 0.064,-0.116 0.05,-0.175l-0.35,-1.5l1.175,-1.025c0.046,-0.04 0.069,-0.092 0.05,-0.15c-0.019,-0.058 -0.064,-0.095 -0.125,-0.1l-1.55,-0.125l-0.6,-1.45c-0.023,-0.056 -0.089,-0.1 -0.15,-0.1ZM44.9,3.6c-0.061,0 -0.127,0.044 -0.15,0.1l-0.6,1.45l-1.55,0.125c-0.061,0.005 -0.106,0.042 -0.125,0.1c-0.019,0.058 0.004,0.111 0.05,0.15l1.175,1.025l-0.35,1.5c-0.011,0.044 -0.002,0.089 0.025,0.125c0.027,0.036 0.055,0.073 0.1,0.075c0.031,0.002 0.074,-0.009 0.1,-0.025l1.325,-0.8l1.325,0.8c0.052,0.032 0.126,0.036 0.175,0c0.049,-0.036 0.064,-0.116 0.05,-0.175l-0.35,-1.5l1.175,-1.025c0.046,-0.04 0.069,-0.092 0.05,-0.15c-0.019,-0.058 -0.089,-0.095 -0.15,-0.1l-1.55,-0.125l-0.575,-1.45c-0.023,-0.056 -0.089,-0.1 -0.15,-0.1ZM22.375,4.2c-3.75,2.008 -6.185,4.292 -8.025,10.25c0.004,0.147 0.191,0.261 0.325,0.2c3.59,-2.629 6.171,-4.713 7.925,-10.2c0.015,-0.126 -0.098,-0.251 -0.225,-0.25ZM49.625,4.2c-0.127,-0.001 -0.24,0.124 -0.225,0.25c1.754,5.487 4.335,7.571 7.925,10.2c0.134,0.061 0.321,-0.053 0.325,-0.2c-1.84,-5.958 -4.275,-8.242 -8.025,-10.25ZM14.8,4.4c-0.015,0.002 -0.035,0.019 -0.05,0.025c-2.773,3.225 -4.208,6.23 -3.775,12.45c0.057,0.136 0.272,0.155 0.375,0.05c2.4,-3.747 4.043,-6.6 3.7,-12.35c-0.023,-0.092 -0.107,-0.167 -0.2,-0.175c-0.016,-0.001 -0.034,-0.002 -0.05,0ZM57.15,4.4c-0.093,0.008 -0.177,0.083 -0.2,0.175c-0.343,5.75 1.3,8.603 3.7,12.35c0.103,0.105 0.318,0.086 0.375,-0.05c0.433,-6.22 -1.002,-9.225 -3.775,-12.45c-0.029,-0.012 -0.069,-0.028 -0.1,-0.025ZM8.025,11.25c-0.047,0.001 -0.088,0.02 -0.125,0.05c-1.647,3.921 -2.099,7.214 0.225,13c0.096,0.112 0.309,0.106 0.375,-0.025c1.133,-4.304 1.819,-7.559 -0.275,-12.925c-0.042,-0.067 -0.121,-0.102 -0.2,-0.1ZM63.975,11.25c-0.079,-0.002 -0.158,0.033 -0.2,0.1c-2.094,5.366 -1.408,8.621 -0.275,12.925c0.066,0.131 0.279,0.137 0.375,0.025c2.324,-5.786 1.872,-9.079 0.225,-13c-0.037,-0.03 -0.078,-0.049 -0.125,-0.05ZM19.825,12.975c-3.994,1.462 -6.718,3.409 -9.375,9.05c-0.017,0.146 0.159,0.266 0.3,0.225c3.924,-2.1 6.769,-3.788 9.275,-8.975c0.033,-0.122 -0.074,-0.283 -0.2,-0.3ZM52.175,12.975c-0.126,0.017 -0.233,0.178 -0.2,0.3c2.506,5.187 5.351,6.875 9.275,8.975c0.141,0.041 0.317,-0.079 0.3,-0.225c-2.657,-5.641 -5.381,-7.588 -9.375,-9.05ZM36,15.875c-0.373,0 -0.731,0.256 -0.875,0.6l-3.675,8.8l-9.5,0.775c-0.372,0.03 -0.71,0.295 -0.825,0.65c-0.115,0.355 -0.009,0.782 0.275,1.025l7.25,6.2l-2.225,9.275c-0.065,0.271 0.008,0.577 0.175,0.8c0.167,0.223 0.447,0.361 0.725,0.375c0.19,0.009 0.363,-0.05 0.525,-0.15l8.15,-4.95l8.15,4.95c0.319,0.195 0.748,0.195 1.05,-0.025c0.302,-0.22 0.462,-0.637 0.375,-1l-2.225,-9.275l7.25,-6.2c0.284,-0.243 0.391,-0.67 0.275,-1.025c-0.116,-0.355 -0.453,-0.621 -0.825,-0.65l-9.5,-0.775l-3.675,-8.8c-0.143,-0.344 -0.502,-0.6 -0.875,-0.6ZM2.575,17.25c-0.062,0.009 -0.115,0.047 -0.15,0.1c-0.393,4.235 0.17,7.529 4.125,12.35c0.125,0.078 0.302,-0.03 0.325,-0.175c-0.213,-4.445 -0.516,-7.736 -4.125,-12.225c-0.048,-0.041 -0.113,-0.059 -0.175,-0.05ZM69.375,17.25c-0.047,0.002 -0.089,0.019 -0.125,0.05c-3.609,4.489 -3.912,7.78 -4.125,12.225c0.023,0.145 0.2,0.253 0.325,0.175c3.955,-4.821 4.518,-8.115 4.125,-12.35c-0.043,-0.066 -0.121,-0.104 -0.2,-0.1ZM12.5,22.025c-0.047,0.002 -0.089,0.019 -0.125,0.05c-3.609,4.489 -3.937,7.78 -4.15,12.225c0.023,0.145 0.225,0.228 0.35,0.15c3.955,-4.821 4.518,-8.09 4.125,-12.325c-0.043,-0.066 -0.121,-0.104 -0.2,-0.1ZM59.45,22.025c-0.062,0.009 -0.115,0.047 -0.15,0.1c-0.393,4.235 0.17,7.504 4.125,12.325c0.125,0.078 0.327,-0.005 0.35,-0.15c-0.213,-4.445 -0.541,-7.736 -4.15,-12.225c-0.048,-0.041 -0.113,-0.059 -0.175,-0.05ZM1.675,26.275c-0.094,-0.003 -0.191,0.035 -0.225,0.125c0.517,4.222 1.759,7.307 6.65,11.175c0.138,0.049 0.308,-0.053 0.3,-0.2c-1.154,-4.298 -2.168,-7.457 -6.65,-11.075c-0.028,-0.015 -0.044,-0.024 -0.075,-0.025ZM70.325,26.275c-0.031,0.001 -0.047,0.01 -0.075,0.025c-4.482,3.618 -5.496,6.777 -6.65,11.075c-0.008,0.147 0.162,0.249 0.3,0.2c4.891,-3.868 6.133,-6.953 6.65,-11.175c-0.034,-0.09 -0.131,-0.128 -0.225,-0.125ZM11.375,32.625c-0.047,0.006 -0.092,0.041 -0.125,0.075c-1.206,4.079 -1.296,7.404 1.65,12.9c0.107,0.1 0.324,0.063 0.375,-0.075c0.652,-4.402 0.971,-7.696 -1.7,-12.8c-0.039,-0.05 -0.087,-0.097 -0.15,-0.1c-0.016,-0.001 -0.034,-0.002 -0.05,0ZM60.575,32.625c-0.063,0.003 -0.111,0.05 -0.15,0.1c-2.671,5.104 -2.352,8.398 -1.7,12.8c0.051,0.138 0.268,0.175 0.375,0.075c2.946,-5.496 2.856,-8.821 1.65,-12.9c-0.044,-0.045 -0.112,-0.078 -0.175,-0.075ZM0.2,34.925c-0.109,0.01 -0.198,0.114 -0.2,0.225c1.919,3.796 4.162,6.271 10.075,8.25c0.147,0 0.258,-0.165 0.2,-0.3c-2.544,-3.651 -4.581,-6.268 -10.025,-8.15c-0.016,-0.002 -0.034,-0.027 -0.05,-0.025ZM71.8,34.925c-0.016,-0.001 -0.034,0.023 -0.05,0.025c-5.444,1.882 -7.481,4.499 -10.025,8.15c-0.058,0.135 0.053,0.3 0.2,0.3c5.913,-1.979 8.156,-4.454 10.075,-8.25c-0.002,-0.111 -0.091,-0.215 -0.2,-0.225ZM15.4,43.025c-0.078,0.01 -0.144,0.052 -0.175,0.125c0.32,4.241 1.42,7.383 6.125,11.475c0.136,0.056 0.302,-0.053 0.3,-0.2c-0.952,-4.347 -1.817,-7.552 -6.125,-11.375c-0.041,-0.024 -0.078,-0.031 -0.125,-0.025ZM56.55,43.025c-0.031,0.002 -0.048,0.009 -0.075,0.025c-4.308,3.823 -5.173,7.028 -6.125,11.375c-0.002,0.147 0.164,0.256 0.3,0.2c4.705,-4.092 5.805,-7.234 6.125,-11.475c-0.038,-0.087 -0.131,-0.132 -0.225,-0.125ZM4.825,43.7c-0.127,-0.004 -0.237,0.124 -0.225,0.25c2.333,3.556 4.827,5.747 10.925,7.05c0.146,-0.017 0.247,-0.197 0.175,-0.325c-2.938,-3.342 -5.254,-5.716 -10.875,-6.975ZM67.175,43.7c-5.621,1.259 -7.937,3.633 -10.875,6.975c-0.072,0.128 0.029,0.308 0.175,0.325c6.098,-1.303 8.592,-3.494 10.925,-7.05c0.012,-0.126 -0.098,-0.254 -0.225,-0.25ZM23.9,50.825c-0.109,0.012 -0.225,0.114 -0.225,0.225c1.972,3.769 4.235,6.203 10.175,8.1c0.147,-0.002 0.26,-0.166 0.2,-0.3c-2.595,-3.615 -4.655,-6.219 -10.125,-8.025c-0.016,-0.002 -0.009,-0.002 -0.025,0ZM48.075,50.825c-5.47,1.806 -7.53,4.41 -10.125,8.025c-0.06,0.134 0.053,0.297 0.2,0.3c5.94,-1.897 8.203,-4.331 10.175,-8.1c0,-0.127 -0.124,-0.242 -0.25,-0.225ZM10.525,51.7c-1.027,0.007 -2.132,0.09 -3.375,0.3c-0.119,0.044 -0.184,0.213 -0.125,0.325c3.504,2.411 6.662,3.523 12.8,2.425c0.129,-0.071 0.14,-0.284 0.025,-0.375c-3.112,-1.551 -5.658,-2.701 -9.325,-2.675ZM61.475,51.7c-3.667,-0.026 -6.213,1.124 -9.325,2.675c-0.115,0.091 -0.104,0.304 0.025,0.375c6.138,1.098 9.296,-0.014 12.8,-2.425c0.059,-0.112 -0.006,-0.281 -0.125,-0.325c-1.243,-0.21 -2.348,-0.293 -3.375,-0.3ZM21.05,56.775c-2.132,-0.005 -4.381,0.427 -7.175,1.675c-0.104,0.072 -0.11,0.256 -0.025,0.35c3.996,1.457 7.307,1.75 12.975,-0.85c0.107,-0.101 0.084,-0.316 -0.05,-0.375c-2.041,-0.433 -3.844,-0.795 -5.725,-0.8ZM50.95,56.775c-1.881,0.005 -3.684,0.367 -5.725,0.8c-0.134,0.059 -0.157,0.274 -0.05,0.375c5.668,2.6 8.979,2.307 12.975,0.85c0.085,-0.094 0.079,-0.278 -0.025,-0.35c-2.794,-1.248 -5.043,-1.68 -7.175,-1.675ZM29.05,59.85c-2.617,0.045 -5.159,0.621 -8.425,2.525c-0.096,0.083 -0.12,0.241 -0.025,0.325c4.129,1.019 7.469,0.968 12.825,-2.225c0.095,-0.112 0.04,-0.331 -0.1,-0.375c-1.522,-0.155 -2.904,-0.273 -4.275,-0.25ZM42.575,59.85c-1.25,0.002 -2.516,0.109 -3.9,0.25c-0.14,0.044 -0.195,0.263 -0.1,0.375c5.356,3.193 8.696,3.244 12.825,2.225c0.095,-0.084 0.071,-0.242 -0.025,-0.325c-3.421,-1.994 -6.05,-2.53 -8.8,-2.525ZM34.175,63.275c-2.165,0.279 -3.757,0.623 -5.9,3.775c-0.039,0.083 -0.028,0.219 0.025,0.275c2.071,0.238 3.65,-0.298 5.95,-3.75c0.036,-0.107 -0.004,-0.284 -0.075,-0.3ZM37.825,63.275c-0.071,0.016 -0.111,0.193 -0.075,0.3c2.3,3.452 3.879,3.988 5.95,3.75c0.053,-0.056 0.064,-0.192 0.025,-0.275c-2.143,-3.152 -3.735,-3.496 -5.9,-3.775Z" style="fill:#ffc107;fill-rule:nonzero;"/></svg>