<?xml version="1.0" standalone="no"?><!DOCTYPE svg PUBLIC "-//W3C//DTD SVG 1.1//EN" "http://www.w3.org/Graphics/SVG/1.1/DTD/svg11.dtd"><svg width="100%" height="100%" viewBox="0 0 60 96" version="1.1" xmlns="http://www.w3.org/2000/svg" xmlns:xlink="http://www.w3.org/1999/xlink" xml:space="preserve" style="fill-rule:evenodd;clip-rule:evenodd;stroke-linejoin:round;stroke-miterlimit:1.41421;"><g><path d="M24.182,95.562l-6.317,-7.613l-6.316,7.613l0,-13.054l12.633,0l0,13.054Z" style="fill:#3f51b5;fill-rule:nonzero;"/><path d="M0.522,0.812l0,81.695l11.026,0l0,-6.746c-2.381,-1.874 -3.915,-4.773 -3.915,-8.038c0,-5.65 4.582,-10.231 10.232,-10.231c5.65,0 10.23,4.581 10.23,10.231c0,3.265 -1.534,6.165 -3.915,8.039l0,6.745l35.296,0l0,-81.695l-58.954,0ZM49.371,49.398l-37.9,0l0,-2l37.9,0l0,2ZM49.371,40.134l-37.9,0l0,-2l37.9,0l0,2ZM49.371,31.711l-37.9,0l0,-2l37.9,0l0,2ZM49.371,22.447l-37.9,0l0,-2l37.9,0l0,2ZM49.371,14.025l-37.9,0l0,-2l37.9,0l0,2Z" style="fill:#3f51b5;fill-rule:nonzero;"/></g></svg>