<?xml version="1.0" standalone="no"?><!DOCTYPE svg PUBLIC "-//W3C//DTD SVG 1.1//EN" "http://www.w3.org/Graphics/SVG/1.1/DTD/svg11.dtd"><svg width="100%" height="100%" viewBox="0 0 71 63" version="1.1" xmlns="http://www.w3.org/2000/svg" xmlns:xlink="http://www.w3.org/1999/xlink" xml:space="preserve" style="fill-rule:evenodd;clip-rule:evenodd;stroke-linejoin:round;stroke-miterlimit:1.41421;"><g><path d="M13.707,1.124l3.121,6.323l6.979,1.014l-5.05,4.922l1.192,6.95l-6.242,-3.281l-6.242,3.281l1.192,-6.95l-5.05,-4.922l6.979,-1.014l3.121,-6.323Z" style="fill:#ffc107;fill-rule:nonzero;"/><path d="M44.787,23.507l-0.224,5.464l4.375,3.281l-5.265,1.476l-1.769,5.174l-3.031,-4.552l-5.467,-0.082l3.392,-4.29l-1.61,-5.226l5.126,1.902l4.473,-3.147Z" style="fill:#ffc107;fill-rule:nonzero;"/><path d="M5.362,30.619l5.703,3.534l6.145,-2.695l-1.6,6.517l4.463,5.011l-6.692,0.494l-3.388,5.791l-2.536,-6.212l-6.556,-1.43l5.124,-4.332l-0.663,-6.678Z" style="fill:#ffc107;fill-rule:nonzero;"/><path d="M32.13,43.164l1.979,4.012l4.428,0.642l-3.203,3.121l0.756,4.411l-3.96,-2.082l-3.96,2.082l0.757,-4.411l-3.203,-3.121l4.426,-0.642l1.98,-4.012Z" style="fill:#ffc107;fill-rule:nonzero;"/><path d="M45.03,0.312l-0.302,7.399l5.923,4.444l-7.13,1.997l-2.394,7.009l-4.106,-6.165l-7.404,-0.112l4.594,-5.809l-2.181,-7.077l6.944,2.575l6.056,-4.261Z" style="fill:#ffc107;fill-rule:nonzero;"/><path d="M52.021,37.457l4.048,8.203l9.052,1.315l-6.549,6.382l1.546,9.016l-8.097,-4.256l-8.096,4.256l1.548,-9.016l-6.551,-6.382l9.052,-1.315l4.047,-8.203Z" style="fill:#ffc107;fill-rule:nonzero;"/><path d="M66.121,10.729l-0.225,5.463l4.375,3.282l-5.265,1.474l-1.768,5.175l-3.031,-4.552l-5.468,-0.083l3.392,-4.289l-1.61,-5.225l5.127,1.901l4.473,-3.146Z" style="fill:#ffc107;fill-rule:nonzero;"/></g></svg>