<?xml version="1.0" standalone="no"?><!DOCTYPE svg PUBLIC "-//W3C//DTD SVG 1.1//EN" "http://www.w3.org/Graphics/SVG/1.1/DTD/svg11.dtd"><svg width="100%" height="100%" viewBox="0 0 92 92" version="1.1" xmlns="http://www.w3.org/2000/svg" xmlns:xlink="http://www.w3.org/1999/xlink" xml:space="preserve" style="fill-rule:evenodd;clip-rule:evenodd;stroke-linejoin:round;stroke-miterlimit:1.41421;"><g><path d="M27.6,40.8c0,4 -2.9,7.2 -6.4,7.2c-3.6,0 -6.4,-3.2 -6.4,-7.2c0,-4 2.9,-7.2 6.4,-7.2c3.5,0 6.4,3.2 6.4,7.2Z" style="fill:#000;fill-rule:nonzero;"/><path d="M70.2,33.6c-3.6,0 -6.4,3.2 -6.4,7.2c0,4 2.9,7.2 6.4,7.2c3.6,0 6.4,-3.2 6.4,-7.2c0.1,-4 -2.8,-7.2 -6.4,-7.2ZM70.2,33.6c-3.6,0 -6.4,3.2 -6.4,7.2c0,4 2.9,7.2 6.4,7.2c3.6,0 6.4,-3.2 6.4,-7.2c0.1,-4 -2.8,-7.2 -6.4,-7.2ZM71.5,8.1c-9.9,-1.9 -19.8,2.9 -25.6,14.3c-5.8,-11.4 -15.7,-16.2 -25.6,-14.3c-13.5,2.6 -22,20.4 -19,39.8c3.1,19.4 16.5,33 30.1,30.4c1.6,-0.3 3.2,-0.8 4.6,-1.6c2.1,4.1 5.7,6.8 9.9,6.8c4.1,0 7.8,-2.7 9.9,-6.8c1.5,0.7 3,1.3 4.6,1.6c13.5,2.6 27,-11 30.1,-30.4c3,-19.4 -5.5,-37.2 -19,-39.8ZM21.2,56c-7.2,0 -13.1,-6.9 -13.1,-15.5c0,-8.6 5.9,-15.5 13.1,-15.5c7.2,0 13.1,6.9 13.1,15.5c0,8.6 -5.9,15.5 -13.1,15.5ZM46.4,74.5c-0.2,0.6 -1.3,0.6 -1.4,0l-5.7,-21.7c-0.1,-0.4 0.3,-0.7 0.7,-0.7l5.5,2.2l5.9,-2.2c0.5,0 0.8,0.3 0.7,0.7l-5.7,21.7ZM70.2,56c-7.2,0 -13.1,-6.9 -13.1,-15.5c0,-8.6 5.9,-15.5 13.1,-15.5c7.2,0 13.1,6.9 13.1,15.5c0,8.6 -5.8,15.5 -13.1,15.5ZM70.2,33.6c-3.6,0 -6.4,3.2 -6.4,7.2c0,4 2.9,7.2 6.4,7.2c3.6,0 6.4,-3.2 6.4,-7.2c0.1,-4 -2.8,-7.2 -6.4,-7.2Z" style="fill:#000;fill-rule:nonzero;"/><path d="M27.6,40.8c0,4 -2.9,7.2 -6.4,7.2c-3.6,0 -6.4,-3.2 -6.4,-7.2c0,-4 2.9,-7.2 6.4,-7.2c3.5,0 6.4,3.2 6.4,7.2Z" style="fill:#000;fill-rule:nonzero;"/><path d="M27.6,40.8c0,4 -2.9,7.2 -6.4,7.2c-3.6,0 -6.4,-3.2 -6.4,-7.2c0,-4 2.9,-7.2 6.4,-7.2c3.5,0 6.4,3.2 6.4,7.2Z" style="fill:#000;fill-rule:nonzero;"/><path d="M76.7,40.8c0,4 -2.9,7.2 -6.4,7.2c-3.6,0 -6.4,-3.2 -6.4,-7.2c0,-4 2.9,-7.2 6.4,-7.2c3.5,0 6.4,3.2 6.4,7.2Z" style="fill:#000;fill-rule:nonzero;"/><path d="M76.7,40.8c0,4 -2.9,7.2 -6.4,7.2c-3.6,0 -6.4,-3.2 -6.4,-7.2c0,-4 2.9,-7.2 6.4,-7.2c3.5,0 6.4,3.2 6.4,7.2Z" style="fill:#000;fill-rule:nonzero;"/></g></svg>