<svg version="1" xmlns="http://www.w3.org/2000/svg" width="1333.333" height="1333.333" viewBox="0 0 1000.000000 1000.000000"><path d="M469.5 71.1c-89 7.1-168.4 38.3-238 93.6l-11.7 9.3H32v26l53 .2 53 .3-10.2 6.2c-16.7 9.9-30.4 20.8-45.8 36.3-27.9 27.9-45.7 56.4-58 92.8-9.3 27.8-12.4 47-12.4 77.2 0 39.9 7.5 71.9 25 107 9.2 18.3 18.4 32.5 31.7 48.4l8.9 10.7 3.4 15c48.8 216.1 254.3 360.2 473.7 332.3C733 903.7 879.7 770.2 919.4 594.1l3.4-15 8.9-10.7c24.8-29.8 42-64 50.7-100.4 4.7-19.6 6-31.9 6-55 0-30.2-3.1-49.4-12.4-77.2-12.3-36.4-30-64.9-58-92.9-15.3-15.3-29.5-26.6-46-36.5l-9.9-5.9 52.9-.3 53-.2v-26H780.2l-11.7-9.3c-63.3-50.3-135.9-81.2-214.2-91.1-27.4-3.5-60.3-4.5-84.8-2.5zM273.8 199c55.6 6.1 103.3 31 140.6 73.6 46.3 52.8 63.2 126.1 45.2 195.4-6.9 26.4-20 52.8-37.9 76.5-7.9 10.3-27.9 30.3-38.2 38.2-24.8 18.8-54 32.8-81.5 39.2-53.8 12.4-109.4 4.6-156-22.1-31.7-18.2-60.8-46.8-79.6-78.3-40-67-39-154.6 2.6-221.6 17.2-27.7 46.1-56.2 73.2-72 26.1-15.2 57.8-25.8 86.3-28.8 11.8-1.2 34.2-1.3 45.3-.1zm496.7 0c30.4 3.3 60.8 13.4 87.3 28.9 12.4 7.2 30.3 21.3 42.1 33.2 41 40.9 63.2 94.7 63.1 152.4-.2 57.6-22.1 109.8-63.4 151.1-18.8 18.8-33.5 29.4-55.3 40.3-31.3 15.6-60.6 22.5-95.8 22.5-35.4 0-63-6.3-94-21.4-23.3-11.3-39.4-22.8-58-41.5-18.7-18.6-30.2-34.7-41.5-58-15.1-30.9-21.4-58.6-21.4-93.5 0-21.7 1.6-34.7 6.4-53.6 20.8-80.6 87.8-143.3 168.7-157.9 19.1-3.4 44.1-4.4 61.8-2.5zM536.4 613.1l36.4-36.4 1.6 2.5c1.3 2 14.7 14.3 24.9 22.9 2.8 2.4 2.8 2.5 3.7 19.4 1.6 28.2 5 49.3 12 74.6 9.6 34.9 26.5 72.2 45.2 99.6 1.5 2.3 2.8 4.4 2.8 4.7 0 .3-4.2 3.4-9.2 6.9-45.1 31.2-97.3 51.3-154.3 59.2-15.5 2.2-57.8 3.1-74.6 1.6-25.4-2.3-46.2-6.2-70.2-13.1-13.9-4.1-36.4-12.3-38.1-14-.4-.4 2.7-4.6 7.2-9.4 56.7-60.2 92.1-145.1 94.9-227.8l.6-17.7 4.1-4.6 4.1-4.5 36.2 36.2 36.3 36.3 36.4-36.4zM216 674.3c0 .1-6.4 6.6-14.3 14.5L187.5 703 173 688.5 158.5 674h28.8c15.8 0 28.7.1 28.7.3zm71 0c0 .1-6.4 6.6-14.3 14.5L258.5 703 244 688.5 229.5 674h28.8c15.8 0 28.7.1 28.7.3zm71 0c0 .1-6.4 6.6-14.3 14.5L329.5 703 315 688.5 300.5 674h28.8c15.8 0 28.7.1 28.7.3zm329.7 20.4L673 709.5l-14.7-14.8-14.8-14.7h59l-14.8 14.7zm71 0L744 709.5l-14.7-14.8-14.8-14.7h59l-14.8 14.7zm71.3-.2c-8 8-14.9 14.5-15.5 14.5-.6 0-7.5-6.5-15.5-14.5L784.5 680h60L830 694.5zm-592.3 43.2L223 752.5l-14.7-14.8-14.8-14.7h59l-14.8 14.7zm71 0L294 752.5l-14.7-14.8-14.8-14.7h59l-14.8 14.7zm414 7L708 759.5l-14.7-14.8-14.8-14.7h59l-14.8 14.7zm71 0L779 759.5l-14.7-14.8-14.8-14.7h59l-14.8 14.7zm-510.7 32c-11.9 12.7-23.6 24.3-24.5 24.3-.6 0-7.5-6.5-15.5-14.5L228.5 772h58.9l-4.4 4.7zm475.7 17L744 808.5l-14.7-14.8-14.8-14.7h59l-14.8 14.7z"/><path d="M229.7 304c-4.8 1-11.7 2.9-15.2 4.2l-6.5 2.3 30.7 30.7 30.8 30.8-38.5 38.5-38.5 38.5-25-25c-13.8-13.8-25.4-24.8-25.8-24.4-1.1 1.1-.8 23 .3 30.4 9.6 60.3 67.1 102.2 127 92.5 24.3-4 43.5-13.8 61.1-31.4 17.3-17.4 27.1-36.3 31.4-60.5 10.3-59.4-32.1-118-92.5-127.6-10.2-1.6-29.3-1.1-39.3 1zM730 303.1c-5.3.9-22 5.6-23 6.5-.2.3 13.5 14.4 30.5 31.4l31 31-38.5 38.5-38.5 38.5-26.6-26.6-26.6-26.6-.7 4.7c-1.8 13.9.2 32.2 5.4 47.7 5.7 17.1 13.4 29.4 26.9 42.9 13.5 13.5 25.8 21.2 42.9 26.9 43 14.4 89.2 1.8 119-32.4 13.8-15.8 23.1-35.9 26.3-56.6 1.6-10.4.6-32.3-2-42.5-10.4-41.6-44-73.9-85.9-82.5-10.8-2.2-29.7-2.6-40.2-.9z"/></svg>