<?xml version="1.0" standalone="no"?><!DOCTYPE svg PUBLIC "-//W3C//DTD SVG 1.1//EN" "http://www.w3.org/Graphics/SVG/1.1/DTD/svg11.dtd"><svg width="100%" height="100%" viewBox="0 0 91 88" version="1.1" xmlns="http://www.w3.org/2000/svg" xmlns:xlink="http://www.w3.org/1999/xlink" xml:space="preserve" style="fill-rule:evenodd;clip-rule:evenodd;stroke-linejoin:round;stroke-miterlimit:1.41421;"><path d="M43.219,0.75c-18.438,0 -18.188,15.281 -18.188,15.281l-0.125,8.125c-1.506,-0.019 -1.875,1.395 -1.875,4.219c0,4.233 2.746,8.65 5.219,10.938c0.838,3.327 2.439,6.266 4.594,8.499c-7.394,4.325 -16.281,7.216 -22.063,10.125c-5.861,2.947 -10.781,14.061 -10.781,22.907c11.474,5.127 33.695,5.875 43.219,5.875c4.206,0 10.888,-0.141 18.031,-0.75c-0.512,-0.436 -0.994,-0.909 -1.469,-1.407c-7.431,-7.784 -7.158,-20.098 0.625,-27.531c1.541,-1.47 3.27,-2.663 5.094,-3.531c-3.94,-1.66 -8.098,-3.478 -11.875,-5.688c2.155,-2.233 3.756,-5.172 4.594,-8.5c2.473,-2.287 5.218,-6.704 5.218,-10.937c0.001,-2.824 -0.368,-4.238 -1.874,-4.219l-0.125,-8.125c0,0 0.219,-15.281 -18.219,-15.281ZM73.844,55c-8.713,0.018 -15.89,6.989 -16.094,15.75c-0.205,8.899 6.851,16.262 15.75,16.469c8.9,0.207 16.293,-6.819 16.5,-15.719c0.207,-8.9 -6.85,-16.293 -15.75,-16.5c-0.139,-0.003 -0.268,0 -0.406,0ZM81.844,63.813c0.004,-0.001 0.009,-0.001 0.014,-0.001c0.771,0 1.406,0.635 1.406,1.407c0,0.346 -0.127,0.679 -0.358,0.937l-9.906,11.563c-0.79,0.921 -2.46,0.921 -3.25,0l-5.063,-5.938c-0.153,-0.231 -0.235,-0.502 -0.235,-0.779c0,-0.772 0.635,-1.406 1.406,-1.406c0.354,0 0.695,0.133 0.954,0.373l4.563,5.312l9.406,-10.937c0.258,-0.325 0.648,-0.52 1.063,-0.532Z" style="fill:#00bcd4;fill-rule:nonzero;"/></svg>